<svg id="Group_13" data-name="Group 13" xmlns="http://www.w3.org/2000/svg" xmlns:xlink="http://www.w3.org/1999/xlink" width="93.14" height="125.28" viewBox="0 0 93.14 125.28">
  <defs>
    <clipPath id="clip-path">
      <rect id="Rectangle_17" data-name="Rectangle 17" width="93.14" height="125.28" fill="#fff"/>
    </clipPath>
  </defs>
  <g id="Group_12" data-name="Group 12" clip-path="url(#clip-path)">
    <path id="Path_869" data-name="Path 869" d="M10.125,125.28a14.3,14.3,0,0,1-5.808-2.663A11.482,11.482,0,0,1,.04,114.154C.023,113.829,0,113.5,0,113.177q0-50.5,0-101A11.6,11.6,0,0,1,5.881,1.606,10.692,10.692,0,0,1,11.46.032C18.145.01,24.831-.031,31.516.039A11.607,11.607,0,0,1,42.97,10.9c.079,1.1.075,2.2.075,3.3q.008,14.735,0,29.469c0,.762-.04,1.387.937,1.687.417.128.739.809.944,1.305a3.636,3.636,0,0,1,.1,1.329q.006,14.674.01,29.348c0,1.3-.118,2.443-1.605,2.946-.213.072-.352.659-.356,1.01-.03,2.4-.016,4.809-.016,7.214q0,11.983,0,23.967c0,6.894-3.29,11.065-9.972,12.672-.072.017-.13.091-.195.139Zm9.41-80.321c.016-.322.04-.565.04-.808q0-15.962,0-31.923a10,10,0,0,0-.087-1.341,7.485,7.485,0,0,0-5.2-6.493,7.44,7.44,0,0,0-8.1,1.876A8.281,8.281,0,0,0,3.9,12.629q.033,50.025.016,100.049c0,.448,0,.9.034,1.344a7.541,7.541,0,0,0,5.094,6.839,7.648,7.648,0,0,0,8.4-2,8.375,8.375,0,0,0,2.136-6.06q-.022-15.105-.007-30.211V80.346c-1.668-.313-1.984-1.44-1.979-2.908q.047-14.8,0-29.6c0-1.472.323-2.59,1.938-2.879m1.039,76.406c3.425,0,6.666,0,9.908,0,5.46,0,8.644-3.176,8.649-8.655q.014-15.522,0-31.044V80.325H23.492v1.49q0,15.461.008,30.922a12.418,12.418,0,0,1-2.588,8.086c-.091.114-.156.248-.338.542m.05-117.4c2.568,3.978,2.868,5.008,2.868,9.653V44.953H39.024a2.3,2.3,0,0,0,.1-.426q0-16.439-.005-32.878c0-.2-.028-.407-.047-.609a7.61,7.61,0,0,0-6.956-7.032c-3.768-.2-7.556-.045-11.488-.045m1.005,45.021V76.349c6.092,0,12.083-.028,18.072.024,1.154.01,1.428-.375,1.423-1.475-.042-8.2-.023-16.391-.023-24.587V48.985Z" transform="translate(0 0)" fill="#fff"/>
    <path id="Path_870" data-name="Path 870" d="M161.707,177.037c0-8.314-.016-16.628.006-24.942.012-4.386,2.591-7.517,6.686-8.193a9.044,9.044,0,0,1,1.461-.085q10.395-.008,20.788,0c4.838,0,8.232,3.239,8.245,8.075q.066,25.187,0,50.373c-.011,4.838-3.383,8.082-8.225,8.092q-10.333.022-20.666,0c-4.993-.008-8.274-3.251-8.29-8.256-.027-8.355-.007-16.709-.007-25.064m33.232,15.638c.023-.319.056-.557.056-.794q0-19.928-.006-39.856c0-2.757-1.608-4.292-4.37-4.294q-10.088-.008-20.176,0c-3.414,0-4.819,1.4-4.82,4.806q0,19.378,0,38.756v1.384Zm-.291,11.347c-1.89.158-3.728.422-5.568.445q-7.27.094-14.542,0c-2.853-.038-5.761.476-8.576-.81a3.451,3.451,0,0,0,3.4,2.76q10.937.051,21.874-.007a3.546,3.546,0,0,0,3.412-2.392m-15.431-3.457a6.027,6.027,0,0,1-.736-2,5.241,5.241,0,0,1,.754-1.818h-13.52a3.694,3.694,0,0,0,3.588,3.8c3.338.063,6.677.017,9.914.017m15.682-3.828H181.509a5.7,5.7,0,0,1,.745,1.954,5.392,5.392,0,0,1-.837,1.877c3.269,0,6.523.037,9.777-.013a3.739,3.739,0,0,0,3.7-3.817" transform="translate(-108.857 -96.815)" fill="#fff"/>
    <path id="Path_871" data-name="Path 871" d="M168.8,29.9a31.147,31.147,0,0,1,21.829,8.852c1.182,1.132,1.192,2.564.064,3.336-.859.588-1.8.42-2.83-.57A25.956,25.956,0,0,0,176.8,35.029q-15.011-4.177-26.681,6.215c-.152.136-.293.283-.445.419-1.071.956-2.212,1-3.019.128-.791-.858-.67-2.008.371-3.007A31.085,31.085,0,0,1,168.8,29.9" transform="translate(-98.384 -20.129)" fill="#fff"/>
    <path id="Path_872" data-name="Path 872" d="M176.294,47.842c7.953.166,13.873,2.477,18.8,7.214,1.118,1.075,1.106,2.485.022,3.249-.856.6-1.786.447-2.829-.537a20.94,20.94,0,0,0-10.69-5.536,21.216,21.216,0,0,0-18.615,5.1c-.246.213-.468.455-.715.666a1.958,1.958,0,1,1-2.682-2.833,23.707,23.707,0,0,1,10.871-6.277c2.272-.581,4.626-.837,5.839-1.048" transform="translate(-106.938 -32.207)" fill="#fff"/>
    <path id="Path_873" data-name="Path 873" d="M186.012,65.876A19.52,19.52,0,0,1,199.39,71.24c1.112,1.046,1.259,2.217.428,3.092s-1.931.8-3.1-.246c-6.431-5.75-15.059-5.73-21.577.067a2.06,2.06,0,0,1-2.641.5,1.746,1.746,0,0,1-.854-2.1,3.07,3.07,0,0,1,.855-1.287,19.494,19.494,0,0,1,13.516-5.4" transform="translate(-115.494 -44.348)" fill="#fff"/>
    <path id="Path_874" data-name="Path 874" d="M195.3,83.911a13.139,13.139,0,0,1,8.6,3.727,2.01,2.01,0,0,1,.4,2.911c-.784.92-1.905.915-3.011-.012-4.347-3.647-9.193-3.66-13.493-.035-1.123.947-2.214.98-3.019.092-.781-.863-.625-2.022.4-3A14.163,14.163,0,0,1,195.3,83.911" transform="translate(-124.063 -56.489)" fill="#fff"/>
    <path id="Path_875" data-name="Path 875" d="M203.22,101.836a7.674,7.674,0,0,1,5.22,2.171,1.961,1.961,0,0,1,.27,2.739,1.924,1.924,0,0,1-2.822.193c-2.2-1.627-3.41-1.619-5.705.039a1.911,1.911,0,0,1-2.732-.186,1.953,1.953,0,0,1,.185-2.742,7.744,7.744,0,0,1,5.584-2.214" transform="translate(-132.603 -68.556)" fill="#fff"/>
    <path id="Path_876" data-name="Path 876" d="M213.755,121.838a2.008,2.008,0,0,1-1.975,1.908,1.935,1.935,0,0,1-1.916-2.057,1.908,1.908,0,0,1,2-1.838,1.99,1.99,0,0,1,1.89,1.986" transform="translate(-141.28 -80.683)" fill="#fff"/>
    <path id="Path_877" data-name="Path 877" d="M93.953,37.95A2,2,0,0,1,92.02,39.9a1.932,1.932,0,0,1-1.959-2.014A1.908,1.908,0,0,1,92.021,36a1.994,1.994,0,0,1,1.932,1.946" transform="translate(-60.629 -24.237)" fill="#fff"/>
    <path id="Path_878" data-name="Path 878" d="M92,75.832a1.95,1.95,0,0,1-.071-3.9,1.949,1.949,0,1,1,.071,3.9" transform="translate(-60.63 -48.426)" fill="#fff"/>
    <path id="Path_879" data-name="Path 879" d="M92.033,111.767a1.949,1.949,0,0,1-.147-3.894,1.949,1.949,0,1,1,.147,3.894" transform="translate(-60.628 -72.618)" fill="#fff"/>
    <path id="Path_880" data-name="Path 880" d="M71.859,167.417c0-3.057-.012-6.114,0-9.171.009-1.846.664-2.478,2.522-2.481q5.32-.009,10.64,0c1.781,0,2.481.654,2.486,2.412q.027,9.354,0,18.709c-.006,1.68-.729,2.355-2.415,2.36q-5.442.015-10.885,0c-1.62-.005-2.327-.68-2.341-2.291-.026-3.179-.008-6.358-.009-9.538m11.682-7.661H75.83v15.5h7.711Z" transform="translate(-48.372 -104.858)" fill="#fff"/>
    <path id="Path_881" data-name="Path 881" d="M191.31,190.295c0,1.589.026,3.178-.007,4.766-.034,1.61-.733,2.275-2.355,2.284q-3.544.02-7.089,0c-1.544-.011-2.264-.685-2.279-2.23-.032-3.177-.069-6.356.014-9.531a5.846,5.846,0,0,1,11.691-.053c.071,1.585.012,3.176.012,4.765h.012m-3.945,3.1c0-2.7.042-5.3-.02-7.9a1.909,1.909,0,0,0-3.814,0c-.077,1.583-.04,3.173-.047,4.759,0,1.037,0,2.074,0,3.144Z" transform="translate(-120.869 -121)" fill="#fff"/>
    <path id="Path_882" data-name="Path 882" d="M221.53,190.263c0-1.507-.035-3.016.009-4.522a5.859,5.859,0,1,1,11.715,0c.065,3.094.036,6.191.008,9.287-.014,1.625-.721,2.308-2.319,2.318q-3.544.023-7.089,0c-1.6-.01-2.288-.69-2.319-2.318-.03-1.588-.007-3.177,0-4.766m7.816,3.129c0-2.63.031-5.15-.013-7.668a1.94,1.94,0,1,0-3.87.023c-.047,1.748-.017,3.5-.02,5.249,0,.792,0,1.583,0,2.4Z" transform="translate(-149.126 -121.002)" fill="#fff"/>
    <path id="Path_883" data-name="Path 883" d="M185.479,239.6c1.263,0,2.526-.028,3.788.008a1.875,1.875,0,0,1,2.047,1.951,13.8,13.8,0,0,1-.211,3.516,5.828,5.828,0,0,1-11.43-.956,17.173,17.173,0,0,1-.047-2.44,1.948,1.948,0,0,1,2.188-2.075c1.221-.025,2.443-.005,3.665,0m-1.8,3.963a1.776,1.776,0,0,0,1.868,1.9,1.753,1.753,0,0,0,1.73-1.9Z" transform="translate(-120.909 -161.294)" fill="#fff"/>
    <path id="Path_884" data-name="Path 884" d="M227.439,239.548c1.222,0,2.444-.023,3.665.007a1.9,1.9,0,0,1,2.116,2.013,13.884,13.884,0,0,1-.2,3.4,5.827,5.827,0,0,1-11.437-.838c-.306-3.95-.148-4.8,4.02-4.586.609.031,1.222,0,1.833,0m-1.879,3.978c.127,1.258.844,1.941,1.918,1.884a1.7,1.7,0,0,0,1.669-1.884Z" transform="translate(-149.106 -161.241)" fill="#fff"/>
  </g>
</svg>
