<svg xmlns="http://www.w3.org/2000/svg" width="48.975" height="48.975" viewBox="0 0 48.975 48.975">
  <g id="Group_30" data-name="Group 30" transform="translate(0 0)">
    <path id="Path_895" data-name="Path 895" d="M222.322,115.6h35.13a6.918,6.918,0,0,1,6.922,6.922v35.13a6.918,6.918,0,0,1-6.922,6.922h-35.13a6.918,6.918,0,0,1-6.922-6.922V122.536A6.929,6.929,0,0,1,222.322,115.6Z" transform="translate(-215.4 -115.6)"/>
    <path id="Path_896" data-name="Path 896" d="M296.2,139.7a1.388,1.388,0,1,0,1.4,1.4h0A1.4,1.4,0,0,0,296.2,139.7Zm24.926,0a1.388,1.388,0,1,0,1.4,1.4h0A1.4,1.4,0,0,0,321.121,139.7Z" transform="translate(-284.25 -136.498)" fill="#2d2d2d"/>
    <path id="Path_897" data-name="Path 897" d="M259.983,148.7c-.492.027-.465.731-.465.731,2.6,5.076,7.4,7.56,12.928,7.56s10.364-2.524,12.955-7.587c0,0,.106-.957-.917-.624a13.823,13.823,0,0,1-24.076.027,1.085,1.085,0,0,0-.425-.106Zm17.6,19.7-1.488,4.411-1.435-4.411h-1.408l2.272,6.4h1.09l1.488-4.212,1.488,4.212h1.1l2.272-6.4H281.6l-1.448,4.411-1.475-4.411Zm-7.866,0-2.87,6.4h1.355l.558-1.236.04-.093h2.99l.585,1.342h1.382l-2.843-6.378-.027-.04Zm20.807,0v6.4h1.315v-6.4Zm-37.429.013v6.417h1.329v-2.6H257.4v2.6h1.329v-6.417H257.4v2.591h-2.99v-2.591Zm11.759,0v3.667c0,1.05-.531,1.594-1.488,1.594s-1.488-.571-1.488-1.648V168.4h-1.329v3.667a2.567,2.567,0,0,0,2.79,2.843,2.606,2.606,0,0,0,2.83-2.9V168.4C266.187,168.418,264.859,168.418,264.859,168.418Zm19.173,0v6.4h4.929v-1.169h-3.614v-1.594h2.4v-1.169h-2.4v-1.315h3.494V168.4h-4.81Zm-13.738,1.621.943,2.152.066.146H269.3l.066-.146Z" transform="translate(-248.091 -144.302)" fill="#fff"/>
  </g>
</svg>
