<svg xmlns="http://www.w3.org/2000/svg" width="18.925" height="23.241" viewBox="0 0 18.925 23.241">
  <path id="Icon_metro-apple" data-name="Icon metro-apple" d="M21.241,14.277A5.258,5.258,0,0,1,23.75,9.852a5.428,5.428,0,0,0-4.25-2.3c-1.81-.183-3.531,1.066-4.45,1.066S12.717,7.576,11.216,7.6a5.686,5.686,0,0,0-4.807,2.914c-2.05,3.557-.525,8.825,1.473,11.71.976,1.412,2.14,3,3.668,2.941,1.472-.059,2.028-.952,3.807-.952s2.279.952,3.837.923c1.584-.029,2.587-1.439,3.556-2.855a12.811,12.811,0,0,0,1.61-3.305,5.133,5.133,0,0,1-3.119-4.7ZM18.315,5.639a5.122,5.122,0,0,0,1.209-3.711A5.21,5.21,0,0,0,16.1,3.688a4.872,4.872,0,0,0-1.234,3.6A4.31,4.31,0,0,0,18.315,5.639Z" transform="translate(-5.435 -1.928)"/>
</svg>
