<svg id="Group_32" data-name="Group 32" xmlns="http://www.w3.org/2000/svg" xmlns:xlink="http://www.w3.org/1999/xlink" width="39.259" height="48.094" viewBox="0 0 39.259 48.094">
  <defs>
    <clipPath id="clip-path">
      <rect id="Rectangle_74" data-name="Rectangle 74" width="39.259" height="48.094" fill="none"/>
    </clipPath>
  </defs>
  <g id="Group_31" data-name="Group 31" transform="translate(0 0)" clip-path="url(#clip-path)">
    <path id="Path_898" data-name="Path 898" d="M17.078,0c.28,4.366-1.657,7.614-5.153,10.022A6.777,6.777,0,0,1,7.376,11.05a20.028,20.028,0,0,1,.185-2.4A10.807,10.807,0,0,1,16.256.09,1.584,1.584,0,0,0,16.515,0Z" transform="translate(12.117 0)"/>
    <path id="Path_899" data-name="Path 899" d="M39.259,28.056c-.3.766-.555,1.5-.862,2.212a32.058,32.058,0,0,1-4.987,7.9,6.591,6.591,0,0,1-4,2.519,7.981,7.981,0,0,1-4.038-.563c-.925-.338-1.842-.7-2.786-.97a8.495,8.495,0,0,0-5.2.3c-1.192.412-2.384.838-3.592,1.2a4.445,4.445,0,0,1-4.12-.819A16.563,16.563,0,0,1,6.991,37.3,30.032,30.032,0,0,1,.31,22.445a19.117,19.117,0,0,1,.534-9.179C2.228,9.2,4.789,6.247,8.981,4.907a9.453,9.453,0,0,1,6.081.127c1.181.4,2.347.854,3.515,1.29a4.021,4.021,0,0,0,2.836-.1A29.253,29.253,0,0,1,26.624,4.58c4.466-.663,8.322.563,11.137,4.318.055.074.1.156.177.27C34.325,11.453,32.5,14.659,32.814,19c.314,4.313,2.6,7.207,6.446,9.054" transform="translate(0 7.242)"/>
  </g>
</svg>
