<svg id="Group_265" data-name="Group 265" xmlns="http://www.w3.org/2000/svg" xmlns:xlink="http://www.w3.org/1999/xlink" width="14.873" height="29.679" viewBox="0 0 14.873 29.679">
  <defs>
    <clipPath id="clip-path">
      <rect id="Rectangle_866" data-name="Rectangle 866" width="14.873" height="29.679" fill="#898989"/>
    </clipPath>
  </defs>
  <g id="Group_264" data-name="Group 264" clip-path="url(#clip-path)">
    <path id="Path_1570" data-name="Path 1570" d="M1.571,29.679A1.835,1.835,0,0,1,.214,28.654a2.83,2.83,0,0,1-.2-1.036Q-.006,17.2,0,6.787C0,6.4,0,6.014,0,5.628A1.863,1.863,0,0,1,1.934,3.713c.58-.007,1.16,0,1.785,0V3.4c0-.782,0-1.564,0-2.347A.941.941,0,0,1,4.756,0q2.686,0,5.371,0a.936.936,0,0,1,1.027,1.026c0,.879,0,1.757,0,2.683h.487c.416,0,.832,0,1.248,0a1.853,1.853,0,0,1,1.981,1.974q.005,3.868,0,7.736V27.415A1.933,1.933,0,0,1,13.3,29.679ZM3.718,18.557H7.454v5.414l.04,0,3.664-9.141H7.422V9.419l-.04,0L3.718,18.557" transform="translate(0 -0.001)" fill="#898989"/>
  </g>
</svg>
