<svg id="Group_249" data-name="Group 249" xmlns="http://www.w3.org/2000/svg" xmlns:xlink="http://www.w3.org/1999/xlink" width="26.397" height="26.255" viewBox="0 0 26.397 26.255">
  <defs>
    <clipPath id="clip-path">
      <rect id="Rectangle_858" data-name="Rectangle 858" width="26.397" height="26.255" fill="#898989"/>
    </clipPath>
  </defs>
  <g id="Group_248" data-name="Group 248" clip-path="url(#clip-path)">
    <path id="Path_1544" data-name="Path 1544" d="M4.692,26.255H.877A1.166,1.166,0,0,1,0,25.093Q0,13.538,0,1.982A1.927,1.927,0,0,1,2.249.022c1.036.15,2.07.312,3.1.47L12,1.507c.738.113,1.478.215,2.213.341a1.911,1.911,0,0,1,1.735,2.071q0,11.039,0,22.079c0,.086-.008.171-.012.257h-4.64c0-.1-.012-.206-.012-.309q0-2.659,0-5.318a1.927,1.927,0,0,0-2.066-2.084q-1.237,0-2.473,0A1.913,1.913,0,0,0,4.68,20.6q0,2.711,0,5.421c0,.077.008.154.012.231M5.246,4.492c-.283,0-.567-.007-.85,0a.82.82,0,0,0-.822.791.8.8,0,0,0,.716.837,16.022,16.022,0,0,0,1.877,0,.774.774,0,0,0,.7-.867.8.8,0,0,0-.8-.757c-.274-.009-.549,0-.824,0M5.239,7.8c-.283,0-.567-.007-.85,0a.817.817,0,0,0-.814.771.8.8,0,0,0,.721.858,16.219,16.219,0,0,0,1.852,0,.781.781,0,0,0,.718-.878.805.805,0,0,0-.8-.751c-.274-.009-.549,0-.824,0m0,3.307c-.283,0-.567-.007-.85,0a.817.817,0,0,0-.814.772.8.8,0,0,0,.722.857,16.2,16.2,0,0,0,1.852,0,.78.78,0,0,0,.717-.879.805.805,0,0,0-.8-.75c-.274-.009-.549,0-.824,0m0,3.307h0c-.292,0-.584-.009-.875,0a.813.813,0,0,0-.791.768.788.788,0,0,0,.694.852,15.534,15.534,0,0,0,1.9,0,.772.772,0,0,0,.695-.871.8.8,0,0,0-.8-.753c-.274-.009-.549,0-.824,0m5.5-9.92c-.283,0-.567-.007-.85,0a.815.815,0,0,0-.813.772.792.792,0,0,0,.72.857,16.419,16.419,0,0,0,1.852,0,.791.791,0,0,0,.724-.853.82.82,0,0,0-.81-.776c-.274-.009-.549,0-.824,0M10.721,9.45c.266,0,.533.007.8,0A.825.825,0,1,0,11.512,7.8c-.515-.006-1.03,0-1.545,0a.823.823,0,0,0-.892.824.842.842,0,0,0,.9.827c.249,0,.5,0,.747,0m.013,1.657c-.292,0-.584-.009-.876,0a.811.811,0,0,0-.781.749.776.776,0,0,0,.674.866,15.239,15.239,0,0,0,1.952,0,.772.772,0,0,0,.669-.844.818.818,0,0,0-.789-.77c-.283-.011-.567,0-.85,0m0,3.307c-.292,0-.584-.009-.876,0a.812.812,0,0,0-.782.748.776.776,0,0,0,.673.866,15.053,15.053,0,0,0,1.952,0,.776.776,0,0,0,.668-.869.818.818,0,0,0-.786-.745c-.283-.011-.567,0-.85,0" transform="translate(0 0.001)" fill="#898989"/>
    <path id="Path_1545" data-name="Path 1545" d="M247.6,162.956c0-.1-.012-.206-.012-.309q0-7.734,0-15.468v-.367l1.36.283c2.107.443,4.213.89,6.321,1.328a1.926,1.926,0,0,1,1.628,1.549.3.3,0,0,0,.036.068V161.3a6.482,6.482,0,0,1-.412.9,1.928,1.928,0,0,1-1.238.757Zm4.374-9.92c.275,0,.55.005.824,0a.825.825,0,1,0,0-1.65c-.55-.007-1.1-.008-1.649,0a.824.824,0,0,0,0,1.649c.275.008.55,0,.824,0m.034,1.654c-.283,0-.567-.006-.85,0a.824.824,0,0,0-.013,1.649q.837.015,1.675,0a.824.824,0,0,0-.013-1.649c-.266-.007-.532,0-.8,0m-.018,4.959c.275,0,.55.007.824,0a.825.825,0,0,0,0-1.649c-.549-.009-1.1-.008-1.649,0a.825.825,0,1,0,0,1.65c.275.006.55,0,.824,0" transform="translate(-230.538 -136.701)" fill="#898989"/>
  </g>
</svg>
