<svg xmlns="http://www.w3.org/2000/svg" xmlns:xlink="http://www.w3.org/1999/xlink" width="258" height="258" viewBox="0 0 258 258">
  <defs>
    <clipPath id="clip-path">
      <rect id="Rectangle_30" data-name="Rectangle 30" width="258" height="258" rx="129" transform="translate(100 2887)" fill="#fff"/>
    </clipPath>
  </defs>
  <g id="Mask_Group_1" data-name="Mask Group 1" transform="translate(-100 -2887)" clip-path="url(#clip-path)">
    <g id="samsung" transform="translate(100 2887)">
      <circle id="Ellipse_1" data-name="Ellipse 1" cx="129" cy="129" r="129" fill="#054e9d"/>
      <path id="Path_885" data-name="Path 885" d="M81.079,117.36l4.031,22.726h-6.2L76.342,122.4h-.63l-2.6,17.687h-6.2L70.95,117.36Zm29.428,22.726H116.3l-.932-22.726h-9.7l-1.713,12.547h-.5l-1.713-12.547h-9.7l-.932,22.726H96.9L97.178,123h.579l2.923,17.082h6.1L109.7,123h.579Zm35.677-5.014v.378l.025.378.05.353.076.353.1.328.126.328.126.3.151.3.176.277.2.277.2.252.227.252.227.227.252.227.277.227.277.2.3.2.3.176.3.176.328.151.328.151.328.126.353.126.353.1.353.1.353.076.731.126.756.076.756.025.756-.025.756-.076.731-.126.353-.076.353-.1.353-.1.353-.126.328-.126.328-.126.328-.151.3-.151.3-.176.3-.176.277-.2.277-.2.252-.227.227-.227.227-.252.2-.252.2-.277.176-.277.151-.3.126-.3.126-.328.1-.328.076-.353.05-.353.025-.378V117.36h-6.374v17.813l-.025.076.1.05-.025.076-.025.076-.025.076-.025.076-.05.076-.05.076-.05.076-.05.076-.05.076-.05.076-.05.05-.076.05-.076.05-.076.05-.076.05-.076.05-.076.05-.076.05-.076.025-.076.025-.076.025-.076.025-.1.025h-.6l-.1-.025-.076-.025-.076-.025-.076-.025-.076-.025-.076-.05-.076-.05-.076-.05-.076-.05-.076-.05-.076-.05-.076-.05-.05-.05-.05-.076-.05-.076-.05-.076-.05-.076-.05-.076-.05-.076v-.05l-.025-.076-.025-.076-.025-.076-.025-.076-.025-.076V117.36h-6.374Zm43.286-17.712h-5.518v14.21h-.126l-6.45-14.21h-6.8v22.726h5.518V126.808h.126l6.022,13.278h7.231ZM123.054,135.6v.3l.025.151.025.151.025.151.025.151.025.151.05.126.05.126.05.126.05.126.05.126.076.126.076.126.151.252.176.227.176.227.2.2.227.2.227.2.252.176.252.176.277.176.277.151.3.151.3.126.3.126.655.227.68.176.705.151.705.1.731.076.731.025.731-.025.731-.05.731-.1.705-.126.68-.176.328-.1.328-.126.328-.126.3-.126.3-.151.3-.151.277-.176.277-.176.252-.2.252-.2.227-.2.227-.227.2-.227.2-.252.176-.252.151-.277.151-.277.126-.3.1-.3.076-.3.076-.328.05-.328.076-.882.025-.806-.025-.756-.05-.68-.05-.328-.05-.3-.05-.3-.076-.277-.076-.277-.076-.252-.1-.252-.1-.227-.1-.227-.126-.2-.126-.2-.126-.2-.126-.176-.151-.176-.151-.176-.151-.151-.151-.151-.176-.151-.176-.126-.176-.126-.353-.252-.378-.227-.378-.2-.4-.2-.831-.378-1.688-.756-.428-.2-.4-.227-.4-.252-.4-.277-.378-.3-.378-.328-.176-.176-.176-.176-.176-.2-.176-.2-.076-.176-.076-.176-.05-.151-.05-.151-.025-.151-.025-.151v-.6l.025-.05.025-.05.025-.05.025-.05.025-.05.025-.05.025-.05.025-.05.025-.05.025-.05.025-.05.076-.076.076-.076.076-.076.076-.076.076-.05.076-.05.076-.05.076-.05.076-.05.076-.025.076-.025.076-.025.076-.025.076-.025h.353l.2.025.176.025.176.025.151.025.076.025.076.025.076.025.05.025.05.025.05.025.05.025.05.025.05.025.05.025.05.05.05.05.05.05.025.05.025.05.025.05.025.05.025.05.025.05.025.05.025.05.025.05.025.126.025.126.025.126.025.126.025.277v.3l-.05,1.31H138.7v-3.4l-.025-.126-.025-.126-.025-.126-.025-.126-.025-.126-.025-.126-.05-.1-.05-.1-.05-.1-.05-.1-.05-.1-.05-.1-.126-.2-.151-.2-.176-.2-.176-.176-.2-.176-.2-.176-.227-.176-.227-.151-.252-.151-.252-.151-.277-.126-.554-.252-.6-.227-.63-.176-.655-.151-.655-.126-.68-.076-.68-.05-.68-.025-.68.025-.68.05-.655.1-.655.126-.63.176-.3.1-.3.1-.3.126-.277.126-.277.151-.252.151-.252.151-.252.176-.227.176-.227.2-.2.2-.2.227-.176.227-.176.252-.151.252-.126.252-.126.277-.1.277-.076.3-.076.3-.05.428-.05.454-.025.479v1.033l.025.529.05.554.076.529.1.529.126.5.076.252.076.252.1.227.1.227.1.227.126.2.126.2.126.176.151.176.076.076.076.076.076.076.076.076.076.076.1.076.6.5.6.428.579.378.579.353,1.109.579,1.008.479.907.428.4.227.378.227.176.126.151.126.151.126.151.126.126.151.05.076.05.076.05.076.05.076.05.076.05.076.076.176.076.176.05.176.05.176.025.151.025.151.025.151v.3l-.025.151-.025.126-.025.126-.05.126-.05.126-.05.1-.05.1-.076.1-.076.1-.076.1-.076.076-.076.076-.076.076-.076.076-.1.05-.1.05-.1.05-.1.025-.1.025h-.4l-.2-.025-.2-.025-.176-.025-.151-.05-.076-.025-.076-.025-.076-.025-.076-.025-.076-.025-.05-.025-.05-.025-.05-.025-.05-.05-.05-.05-.05-.05-.05-.05-.05-.05-.05-.05-.025-.05-.025-.05-.025-.05-.025-.05-.025-.05-.025-.05-.025-.05-.025-.05-.05-.126-.025-.126-.025-.126-.025-.151-.025-.151-.025-.3v-.3l.05-1.361h-6.349V135.6ZM52.986,116.428,52,116.5l-.907.126-.428.076-.4.1-.378.1-.378.126-.353.126-.328.126-.3.151-.3.151-.277.176-.252.176-.252.176-.227.2-.227.2-.2.2-.176.2-.176.227-.151.227-.151.227-.126.227-.126.252-.1.252-.1.252-.076.252-.076.252-.05.252-.05.252-.05.252-.025.252-.025.529v.529l.05.529.076.5.1.5.126.479.126.479.151.454.176.428.176.4.176.353.2.328.2.277.1.126.1.126.1.1.1.1.1.076.05.025.05.025.6.5.6.428.579.378.579.353,1.109.579,1.008.479.907.428.4.227.378.227.176.126.151.126.151.126.151.126.126.151.05.076.05.076.05.076.05.076.05.076.05.076.076.176.076.176.05.176.05.176.025.151.025.151.025.151v.3l-.025.151-.025.126-.025.126-.05.126-.05.126-.05.1-.05.1-.076.1-.076.1-.076.1-.076.076-.076.076-.076.076-.1.076-.1.05-.1.05-.1.05-.1.025-.1.025h-.3l-.2-.025-.2-.025-.176-.025-.151-.05-.076-.025-.076-.025-.076-.025-.076-.025-.076-.025-.05-.025L52.2,136l-.05-.025-.05-.05-.05-.05-.05-.05-.05-.05-.05-.05-.05-.05-.025-.05-.025-.05-.025-.05-.025-.05-.025-.05-.025-.05-.05-.076-.025-.05-.05-.126L51.55,135l-.025-.126-.025-.151-.025-.151-.025-.3v-.3l.05-1.361H45.15v3.3l.025.151.025.151.025.151.025.151.025.151.05.126.05.126.05.126.05.126.05.126.076.126.076.126.151.252.176.227.176.227.2.2.227.2.227.2.252.176.252.176.277.176.277.151.3.151.3.126.3.126.655.227.68.176.705.151.705.1.731.076.731.025.731-.025.731-.05.731-.1.705-.126.68-.176.328-.1.328-.126.328-.126.3-.126.3-.151.3-.151.277-.176.277-.176.252-.2.252-.2.227-.2.227-.227.2-.227.2-.252.176-.252.151-.277.151-.277.126-.3.1-.3.076-.3.076-.328.05-.328.076-.882.025-.806-.025-.756-.05-.68-.05-.328-.05-.3-.05-.3-.076-.277-.076-.277-.076-.252-.1-.252-.1-.227-.1-.227-.126-.2-.126-.2-.126-.2-.126-.176-.151-.176-.151-.176-.151-.151-.151-.151-.176-.151-.176-.126-.176-.126-.353-.252-.378-.227-.378-.2-.4-.2-.831-.378-1.688-.756-.428-.2-.4-.227-.4-.252-.4-.277-.378-.3-.378-.328-.176-.176-.176-.176-.176-.2-.176-.2-.076-.176-.076-.176-.05-.151-.05-.151-.025-.151-.025-.151v-.554l.025-.05.025-.05.025-.05.025-.05.025-.05.025-.05.025-.05.025-.05.025-.05.025-.05.025-.05.025-.05.076-.076.076-.076.076-.076.076-.076.076-.05.076-.05.076-.05.076-.05.076-.05.076-.025.076-.025.076-.025.076-.025.076-.025h.353l.2.025.176.025.176.025.151.025.076.025.076.025.076.025.05.025.05.025.05.025.05.025.05.025.05.025.05.025.05.05.05.05.05.05.025.05.025.05.025.05.025.05.025.05.025.05.025.05.025.05.025.05.025.126.025.126.025.126.025.126.025.277v.3l-.05,1.31h5.795v-3.5l-.025-.151-.025-.151-.025-.151-.025-.151-.05-.151-.05-.151-.05-.126-.05-.126-.076-.126-.076-.126-.076-.126-.076-.126-.076-.126-.1-.126-.1-.1-.1-.1-.1-.1-.1-.1-.227-.2-.227-.176-.252-.176-.277-.151-.277-.151-.277-.126-.3-.126-.3-.1-.63-.2-.655-.151-.68-.126-.68-.1-.68-.076Zm152.633,25.145.731.025.68-.025.63-.05.579-.076.529-.1.5-.126.227-.076.227-.076.2-.076.2-.076.2-.1.176-.1.176-.1.176-.1.151-.1.151-.1.151-.126.126-.126.126-.126.126-.126.1-.126.1-.126.1-.126.1-.151.076-.151.076-.151.076-.151.076-.151.126-.3.1-.3.076-.3.05-.3.05-.3.025-.3.025-.3.025-.6v-.579l-.025-1.008v-6.2h-7.483v3.3H206.9V135.6l-.025.076-.025.076-.025.076-.025.076-.025.076-.025.076-.025.076-.05.076-.05.076-.05.076-.05.05-.05.05-.05.05-.05.05-.05.05-.05.05-.076.05-.076.05-.076.05-.076.025-.076.025-.076.025-.076.025-.076.025-.076.025-.076.025h-.454l-.076-.025-.076-.025-.076-.025-.076-.025-.076-.025-.076-.025-.076-.025-.076-.05-.076-.05-.076-.05-.05-.05-.05-.05-.05-.05-.05-.05-.05-.05-.05-.05-.05-.076-.05-.076-.05-.076-.025-.076-.025-.076-.025-.076-.025-.076-.025-.076-.025-.076-.025-.076V122.474l.025-.076.025-.076.025-.076.025-.076.025-.076.025-.076.025-.076.05-.076.05-.076.05-.076.05-.05.05-.05.05-.05.05-.05.05-.05.05-.05.076-.05.076-.05.076-.05.076-.025.076-.025.076-.025.076-.025.076-.025.076-.025.076-.025h.454l.076.025.076.025.076.025.076.025.076.025.076.025.076.025.076.05.076.05.076.05.05.05.05.05.05.05.05.05.05.05.05.05.05.076.05.076.05.076.025.076.025.076.025.076.025.076.025.076.025.076.025.076v2.318h5.971V121.87l-.025-.151-.025-.151-.025-.151-.025-.151-.025-.151-.1-.176-.05-.151-.05-.151-.05-.151-.05-.126-.076-.126-.076-.126-.151-.252-.176-.252-.176-.227-.2-.227-.2-.2-.227-.2-.252-.2-.252-.176-.252-.176-.277-.151-.277-.151-.3-.151-.3-.126-.3-.126-.328-.1-.655-.176-.68-.151-.705-.1-.705-.076-.731-.025-.731.025-.705.05-.705.1-.68.151-.655.176-.328.1-.3.126-.3.126-.3.126-.277.151-.277.151-.252.176-.252.176-.252.2-.227.2-.2.2-.2.227-.176.227-.176.252-.151.252-.076.126-.05.126-.076.126-.05.126-.05.151-.05.151-.05.151-.025.151-.025.151-.025.151-.025.151-.025.151v15.042l.025.2.025.2.025.2.025.176.05.176.05.176.05.176.05.176.076.151.076.151.076.151.076.151.1.151.1.126.1.126.1.126.1.126.126.126.126.126.126.1.252.2.277.2.277.176.3.151.3.151.3.126.328.126.328.1.328.1.68.151.68.1.68.076.655.05h.63Z" fill="#fff"/>
    </g>
  </g>
</svg>
