<svg xmlns="http://www.w3.org/2000/svg" xmlns:xlink="http://www.w3.org/1999/xlink" width="35.891" height="35.915" viewBox="0 0 35.891 35.915">
  <defs>
    <clipPath id="clip-path">
      <rect id="Rectangle_93" data-name="Rectangle 93" width="35.891" height="35.915"/>
    </clipPath>
  </defs>
  <g id="Group_57" data-name="Group 57" clip-path="url(#clip-path)">
    <path id="Path_904" data-name="Path 904" d="M25.026,35.915c-.6-.091-1.193-.174-1.787-.275a22.785,22.785,0,0,1-5.1-1.567,1.4,1.4,0,1,1,1.074-2.594,22.354,22.354,0,0,0,4.5,1.385,11.07,11.07,0,0,0,6.555-.576,7.03,7.03,0,0,0,2.109-1.418,2.452,2.452,0,0,0,.143-3.285A11.391,11.391,0,0,0,29.2,24.933c-1.654-.851-2.779-.64-4.168.719-.785.768-1.558,1.547-2.338,2.321a1.487,1.487,0,0,1-2.016.332,27.577,27.577,0,0,1-5.951-4.162A32.96,32.96,0,0,1,9,17.6c-.508-.78-.966-1.6-1.412-2.414a1.437,1.437,0,0,1,.3-1.9C8.76,12.386,9.643,11.5,10.51,10.6a3.075,3.075,0,0,0,.384-4.065A12.7,12.7,0,0,0,8.555,3.579a2.463,2.463,0,0,0-3.689.155A8.124,8.124,0,0,0,2.875,8.6a16.444,16.444,0,0,0,1.591,8.255,28.868,28.868,0,0,0,8.593,10.888c.182.146.366.29.54.447a1.4,1.4,0,0,1-1.735,2.194c-.482-.349-.941-.73-1.394-1.116a31.1,31.1,0,0,1-9.1-12.571A18.643,18.643,0,0,1,.021,9,11.15,11.15,0,0,1,2.834,1.785a5.238,5.238,0,0,1,7.394-.479,13.18,13.18,0,0,1,3.54,4.73,5.607,5.607,0,0,1-1.023,6.282c-.706.807-1.481,1.554-2.257,2.361A31.06,31.06,0,0,0,21.281,25.463c.574-.589,1.108-1.194,1.7-1.731a11.41,11.41,0,0,1,1.763-1.367,5.439,5.439,0,0,1,5.14-.215,14.728,14.728,0,0,1,4.5,3.278,5.12,5.12,0,0,1,1.34,2.381c.06.224.108.45.162.676v1.262c-.025.1-.056.2-.074.3a5.027,5.027,0,0,1-1.348,2.712,10.069,10.069,0,0,1-4.836,2.726c-.776.193-1.575.291-2.364.432Z" transform="translate(0 0)"/>
  </g>
</svg>
