<svg id="Group_255" data-name="Group 255" xmlns="http://www.w3.org/2000/svg" xmlns:xlink="http://www.w3.org/1999/xlink" width="24.387" height="19.521" viewBox="0 0 24.387 19.521">
  <defs>
    <clipPath id="clip-path">
      <rect id="Rectangle_861" data-name="Rectangle 861" width="24.387" height="19.521" fill="#898989"/>
    </clipPath>
  </defs>
  <g id="Group_254" data-name="Group 254" clip-path="url(#clip-path)">
    <path id="Path_1555" data-name="Path 1555" d="M0,16.954v-11a.541.541,0,0,0,.042-.107A2.848,2.848,0,0,1,2.734,3.42C3.566,3.377,4.4,3.4,5.233,3.4A.376.376,0,0,0,5.6,3.2c.39-.607.8-1.2,1.191-1.808A2.933,2.933,0,0,1,9.371.005q2.821-.011,5.642,0A2.933,2.933,0,0,1,17.6,1.394c.4.6.8,1.2,1.191,1.807a.374.374,0,0,0,.362.2c.738-.01,1.476-.009,2.214,0a2.892,2.892,0,0,1,2.944,2.282,3.433,3.433,0,0,1,.074.755q.007,5.023,0,10.047a2.957,2.957,0,0,1-.262,1.318,2.881,2.881,0,0,1-2.785,1.719q-9.142,0-18.284,0c-.1,0-.191,0-.286-.007a2.907,2.907,0,0,1-2.648-2.08c-.046-.158-.082-.319-.123-.479M12.183,4.008a6.562,6.562,0,1,0,6.583,6.543,6.568,6.568,0,0,0-6.583-6.543m8.338,3.517a6.28,6.28,0,0,0,.722-.049A.816.816,0,0,0,21.9,6.63a.836.836,0,0,0-.742-.826,10.988,10.988,0,0,0-1.282,0A.847.847,0,0,0,19.8,7.479a6.479,6.479,0,0,0,.721.046" transform="translate(0 0)" fill="#898989"/>
    <path id="Path_1556" data-name="Path 1556" d="M135.011,106.627a3.643,3.643,0,1,1-3.651,3.682,3.657,3.657,0,0,1,3.651-3.682" transform="translate(-122.828 -99.701)" fill="#898989"/>
  </g>
</svg>
