<svg id="Group_267" data-name="Group 267" xmlns="http://www.w3.org/2000/svg" xmlns:xlink="http://www.w3.org/1999/xlink" width="24.08" height="24.039" viewBox="0 0 24.08 24.039">
  <defs>
    <clipPath id="clip-path">
      <rect id="Rectangle_868" data-name="Rectangle 868" width="24.08" height="24.039" fill="#898989"/>
    </clipPath>
  </defs>
  <g id="Group_266" data-name="Group 266" clip-path="url(#clip-path)">
    <path id="Path_1571" data-name="Path 1571" d="M15.99,24.039H.516A1.084,1.084,0,0,1,0,23.523v-.376a.813.813,0,0,1,.754-.525v-.329q0-9.8,0-19.6A2.592,2.592,0,0,1,3.447,0q4.82,0,9.64,0a2.972,2.972,0,0,1,.675.071,2.564,2.564,0,0,1,2,2.586c.006,1.7,0,3.4,0,5.093V8.3A9.971,9.971,0,0,1,17,8.856a3.63,3.63,0,0,1,1.789,3.257c0,2.175,0,4.35,0,6.525a1.469,1.469,0,0,0,.05.439.786.786,0,0,0,.868.526.813.813,0,0,0,.693-.869q0-4.835,0-9.67c0-.154-.052-.208-.2-.255a2.922,2.922,0,0,1-2.066-2.734c-.022-.782-.008-1.565-.007-2.347A.659.659,0,0,1,18.52,3.1a2.625,2.625,0,0,1,.374-.122c0-.077,0-.162,0-.247,0-.438-.006-.876.006-1.314a.674.674,0,0,1,.528-.64.66.66,0,0,1,.75.3,1.15,1.15,0,0,1,.122.49c.016.474.006.948.006,1.428h1.609c0-.507-.019-1,.01-1.489a.991.991,0,0,1,.213-.545.612.612,0,0,1,.752-.152.685.685,0,0,1,.435.665c0,.507,0,1.013,0,1.53a.789.789,0,0,1,.755.561v2.77a1.1,1.1,0,0,0-.043.13,2.9,2.9,0,0,1-1.988,2.318.3.3,0,0,0-.236.348q.007,3.778,0,7.556c0,.7.011,1.408,0,2.112a2.206,2.206,0,0,1-3.074,2.037,2.164,2.164,0,0,1-1.359-2.16q0-3.215,0-6.429a4.148,4.148,0,0,0-.017-.445,2.271,2.271,0,0,0-1.351-1.893,2.02,2.02,0,0,0-.238-.081V22.6c.543.125.779.385.741.806a.773.773,0,0,1-.524.63M8.253,3.014q-1.822,0-3.645,0a.733.733,0,0,0-.834.817q0,2.911,0,5.821a.729.729,0,0,0,.815.812q3.668,0,7.336,0a.731.731,0,0,0,.819-.828q0-2.887,0-5.774a.737.737,0,0,0-.847-.847H8.253M7.805,15.838c.052-.11.087-.186.124-.26.311-.622.625-1.242.933-1.866A.707.707,0,1,0,7.6,13.091q-.77,1.528-1.532,3.059a.708.708,0,0,0,.688,1.1c.572,0,1.143,0,1.715,0h.249c-.056.121-.09.2-.128.275-.314.629-.633,1.255-.943,1.886a.7.7,0,1,0,1.258.626c.131-.249.254-.5.379-.753.392-.782.786-1.563,1.174-2.347a.711.711,0,0,0-.674-1.1c-.188,0-.376,0-.564,0H7.805" transform="translate(0.001 0)" fill="#898989"/>
    <rect id="Rectangle_867" data-name="Rectangle 867" width="6.121" height="4.599" transform="translate(5.197 4.441)" fill="#898989"/>
  </g>
</svg>
