<svg xmlns="http://www.w3.org/2000/svg" width="32.757" height="32.747" viewBox="0 0 32.757 32.747">
  <g id="Group_209" data-name="Group 209" transform="translate(-12733.344 -1321.565)">
    <path id="Path_9" data-name="Path 9" d="M72.482,163.742a11.68,11.68,0,0,0-1.076,2.78,9.856,9.856,0,0,0,.961,6.946c.044.083.078.171.117.257-.024.119-.122.168-.213.221-1.644.957-3.3,1.894-4.944,2.852a.626.626,0,0,1-.383.136.935.935,0,0,1-.3-.4,16.083,16.083,0,0,1-1.8-5.451c-.046-.334-.018-.675-.088-1.006v-.256a.233.233,0,0,0,0-.256v-.32a.489.489,0,0,0,0-.384V168.6a.489.489,0,0,0,0-.384v-.32a.233.233,0,0,0,0-.256v-.32a17.2,17.2,0,0,1,.352-2.383,16.843,16.843,0,0,1,1.567-4.06.836.836,0,0,1,.266-.351.446.446,0,0,1,.325.1c1.644.962,3.3,1.9,4.95,2.855C72.317,163.551,72.442,163.6,72.482,163.742Z" transform="translate(12668.594 1169.208)" fill="#73a9f3" fill-rule="evenodd"/>
    <path id="Path_10" data-name="Path 10" d="M96.048,76.158l-5.5-3.183c-.077-.129.015-.225.073-.32a15.909,15.909,0,0,1,2.049-2.722,16.526,16.526,0,0,1,3.5-2.856,16.348,16.348,0,0,1,6.175-2.215,9.309,9.309,0,0,0,.943-.089h.32a.083.083,0,0,0,.128,0h.192a.489.489,0,0,0,.384,0h.384a.583.583,0,0,1,.1.423q0,2.774,0,5.548a.575.575,0,0,1-.1.423,10.037,10.037,0,0,0-8.478,4.76C96.162,76.007,96.1,76.081,96.048,76.158Z" transform="translate(12645.029 1256.792)" fill="#73a9f3" fill-rule="evenodd"/>
    <path id="Path_11" data-name="Path 11" d="M90.7,318.495l5.5-3.181a16.027,16.027,0,0,0,1.151,1.561,9.927,9.927,0,0,0,7.33,3.414c.053,0,.106.007.159.01a.575.575,0,0,1,.1.423q0,2.774,0,5.548a.583.583,0,0,1-.1.423h-.128a.831.831,0,0,0-.512,0h-.192a.083.083,0,0,0-.128,0H103.5a15.784,15.784,0,0,1-9.238-3.788,16,16,0,0,1-3.339-3.845C90.821,318.891,90.625,318.742,90.7,318.495Z" transform="translate(12644.871 1027.619)" fill="#73a9f3" fill-rule="evenodd"/>
    <path id="Path_12" data-name="Path 12" d="M256.725,71.167q0-3.2,0-6.393h.32a1.093,1.093,0,0,0,.576,0H258a7.4,7.4,0,0,0,1.238.186,16.291,16.291,0,0,1,8.2,3.821,1.04,1.04,0,0,1,.095,1.559q-1.513,1.559-3.071,3.073a1.054,1.054,0,0,1-1.5-.014A10,10,0,0,0,259,71.451,15.092,15.092,0,0,0,256.725,71.167Z" transform="translate(12492.992 1256.791)" fill="#73a9f3" fill-rule="evenodd"/>
    <path id="Path_13" data-name="Path 13" d="M256.726,365.714q0-3.2,0-6.394a10.663,10.663,0,0,0,3.588-.7c.476-.2.939-.427,1.409-.642.116.029.167.126.22.218q1.453,2.516,2.9,5.033c.046.079.121.156.073.263a9.03,9.03,0,0,1-1.938.992,15.46,15.46,0,0,1-4.847,1.171c-.051,0-.108,0-.13.062Z" transform="translate(12492.991 988.598)" fill="#73a9f3" fill-rule="evenodd"/>
    <path id="Path_14" data-name="Path 14" d="M261.052,64.774a.578.578,0,0,1-.576,0Z" transform="translate(12489.562 1256.791)" fill="#73a9f3" fill-rule="evenodd"/>
    <path id="Path_15" data-name="Path 15" d="M249.227,447.928a.477.477,0,0,1,.512,0Z" transform="translate(12499.853 906.383)" fill="#73a9f3" fill-rule="evenodd"/>
    <path id="Path_16" data-name="Path 16" d="M248.111,64.774a.288.288,0,0,1-.384,0Z" transform="translate(12501.223 1256.791)" fill="#73a9f3" fill-rule="evenodd"/>
    <path id="Path_17" data-name="Path 17" d="M64.75,250.75a.289.289,0,0,1,0,.384Z" transform="translate(12668.594 1086.677)" fill="#73a9f3" fill-rule="evenodd"/>
    <path id="Path_18" data-name="Path 18" d="M64.75,258.249a.289.289,0,0,1,0,.384Z" transform="translate(12668.594 1079.817)" fill="#73a9f3" fill-rule="evenodd"/>
    <path id="Path_19" data-name="Path 19" d="M64.75,244c.1.085.086.171,0,.256Z" transform="translate(12668.594 1092.85)" fill="#73a9f3" fill-rule="evenodd"/>
    <path id="Path_20" data-name="Path 20" d="M64.75,266.5c.086.085.1.171,0,.256Z" transform="translate(12668.594 1072.272)" fill="#73a9f3" fill-rule="evenodd"/>
    <path id="Path_21" data-name="Path 21" d="M244.105,64.774c-.043.072-.085.08-.128,0Z" transform="translate(12504.654 1256.791)" fill="#73a9f3" fill-rule="evenodd"/>
    <path id="Path_22" data-name="Path 22" d="M245.477,448.125c.043-.078.085-.071.128,0Z" transform="translate(12503.282 906.187)" fill="#73a9f3" fill-rule="evenodd"/>
    <path id="Path_23" data-name="Path 23" d="M272.511,240.276l-3.036-5.24c-.053-.092-.108-.183-.162-.275a11.377,11.377,0,0,0,2.469-2.056,10.1,10.1,0,0,0,1.709-2.72.436.436,0,0,0,.07-.3h-7.218c-.925,0-1.318-.4-1.318-1.326q0-1.935,0-3.869a1.087,1.087,0,0,1,1.2-1.219q6.539-.008,13.078,0a1.085,1.085,0,0,1,1.226,1.037,13.9,13.9,0,0,1-.211,5.394,15.944,15.944,0,0,1-7.661,10.5A1.333,1.333,0,0,1,272.511,240.276Z" transform="translate(12485.4 1111.809)" fill="#73a9f3" fill-rule="evenodd"/>
  </g>
</svg>
