<svg id="Group_22" data-name="Group 22" xmlns="http://www.w3.org/2000/svg" xmlns:xlink="http://www.w3.org/1999/xlink" width="12.775" height="24.625" viewBox="0 0 12.775 24.625">
  <defs>
    <clipPath id="clip-path">
      <rect id="Rectangle_67" data-name="Rectangle 67" width="12.775" height="24.625" transform="translate(0 0)" fill="#73a9f3"/>
    </clipPath>
  </defs>
  <g id="Group_21" data-name="Group 21" transform="translate(0 0)" clip-path="url(#clip-path)">
    <path id="Path_887" data-name="Path 887" d="M10.668,0c.414.032.828.063,1.242.1.286.023.572.051.865.077V4.091c-.118,0-.227,0-.336,0-.826.012-1.652,0-2.476.043A1.543,1.543,0,0,0,8.324,5.754C8.276,6.826,8.313,7.9,8.313,9.011H12.63l-.566,4.39H8.3V24.625H3.777V13.411H0V9.028H3.773c0-.124,0-.216,0-.309,0-1.147-.024-2.3.023-3.44A5.484,5.484,0,0,1,5.234,1.6,5.005,5.005,0,0,1,7.944.149c.28-.058.564-.1.847-.149Z" transform="translate(0 0)" fill="#73a9f3"/>
  </g>
</svg>
