<svg xmlns="http://www.w3.org/2000/svg" width="24.037" height="24.03" viewBox="0 0 24.037 24.03">
  <g id="Group_106" data-name="Group 106" transform="translate(-837.982 -311.339)">
    <path id="Path_9" data-name="Path 9" d="M70.424,162.886a8.571,8.571,0,0,0-.79,2.04,7.233,7.233,0,0,0,.7,5.1c.032.061.058.126.086.189-.018.087-.089.123-.157.162-1.207.7-2.422,1.39-3.628,2.093a.459.459,0,0,1-.281.1.686.686,0,0,1-.221-.3,11.8,11.8,0,0,1-1.323-4c-.034-.245-.013-.495-.065-.738v-.188a.171.171,0,0,0,0-.188v-.235a.359.359,0,0,0,0-.282v-.188a.359.359,0,0,0,0-.282v-.235a.171.171,0,0,0,0-.188v-.235a12.619,12.619,0,0,1,.258-1.748,12.36,12.36,0,0,1,1.15-2.979.614.614,0,0,1,.195-.258.327.327,0,0,1,.238.076c1.206.706,2.421,1.4,3.632,2.1C70.3,162.745,70.395,162.783,70.424,162.886Z" transform="translate(773.232 156.808)" fill="#fed400" fill-rule="evenodd"/>
    <path id="Path_10" data-name="Path 10" d="M94.574,73.127l-4.04-2.336c-.057-.095.011-.165.053-.235a11.674,11.674,0,0,1,1.5-2,12.127,12.127,0,0,1,2.568-2.1,12,12,0,0,1,4.531-1.626,6.831,6.831,0,0,0,.692-.065h.235a.061.061,0,0,0,.094,0h.141a.359.359,0,0,0,.282,0h.282a.428.428,0,0,1,.076.31q0,2.036,0,4.071a.422.422,0,0,1-.075.31,7.365,7.365,0,0,0-6.221,3.493C94.658,73.016,94.615,73.071,94.574,73.127Z" transform="translate(749.081 246.566)" fill="#fe4b26" fill-rule="evenodd"/>
    <path id="Path_11" data-name="Path 11" d="M90.7,317.648l4.038-2.334a11.76,11.76,0,0,0,.845,1.145,7.285,7.285,0,0,0,5.379,2.505c.039,0,.078.005.117.008a.422.422,0,0,1,.075.31q0,2.036,0,4.071a.428.428,0,0,1-.076.31h-.094a.61.61,0,0,0-.376,0h-.141a.061.061,0,0,0-.094,0h-.282a11.582,11.582,0,0,1-6.779-2.78,11.738,11.738,0,0,1-2.451-2.821C90.785,317.938,90.641,317.83,90.7,317.648Z" transform="translate(748.919 11.705)" fill="#12b247" fill-rule="evenodd"/>
    <path id="Path_12" data-name="Path 12" d="M256.725,69.466q0-2.346,0-4.692h.235a.8.8,0,0,0,.422,0h.282a5.431,5.431,0,0,0,.909.136,11.954,11.954,0,0,1,6.017,2.8.763.763,0,0,1,.07,1.144q-1.11,1.144-2.254,2.255a.773.773,0,0,1-1.1-.01,7.338,7.338,0,0,0-2.911-1.429A11.076,11.076,0,0,0,256.725,69.466Z" transform="translate(593.272 246.565)" fill="#d83f21" fill-rule="evenodd"/>
    <path id="Path_13" data-name="Path 13" d="M256.726,363.654q0-2.346,0-4.692a7.825,7.825,0,0,0,2.633-.517c.349-.146.689-.313,1.034-.471.085.021.123.092.161.16q1.066,1.847,2.131,3.694c.033.058.089.114.054.193a6.625,6.625,0,0,1-1.422.728,11.345,11.345,0,0,1-3.557.86c-.037,0-.079,0-.1.046Z" transform="translate(593.271 -28.285)" fill="#0f983e" fill-rule="evenodd"/>
    <path id="Path_14" data-name="Path 14" d="M260.9,64.774a.424.424,0,0,1-.422,0Z" transform="translate(589.756 246.565)" fill="#e0492b" fill-rule="evenodd"/>
    <path id="Path_15" data-name="Path 15" d="M249.227,447.909a.35.35,0,0,1,.376,0Z" transform="translate(600.301 -112.54)" fill="#29ba58" fill-rule="evenodd"/>
    <path id="Path_16" data-name="Path 16" d="M248.009,64.774a.211.211,0,0,1-.282,0Z" transform="translate(601.707 246.565)" fill="#fe6748" fill-rule="evenodd"/>
    <path id="Path_17" data-name="Path 17" d="M64.75,250.75a.212.212,0,0,1,0,.282Z" transform="translate(773.232 72.228)" fill="#fed710" fill-rule="evenodd"/>
    <path id="Path_18" data-name="Path 18" d="M64.75,258.249a.212.212,0,0,1,0,.282Z" transform="translate(773.232 65.199)" fill="#fed710" fill-rule="evenodd"/>
    <path id="Path_19" data-name="Path 19" d="M64.75,244c.076.063.063.125,0,.188Z" transform="translate(773.232 78.555)" fill="#fee775" fill-rule="evenodd"/>
    <path id="Path_20" data-name="Path 20" d="M64.75,266.5c.063.063.076.125,0,.188Z" transform="translate(773.232 57.466)" fill="#fee775" fill-rule="evenodd"/>
    <path id="Path_21" data-name="Path 21" d="M244.071,64.774c-.031.053-.063.059-.094,0Z" transform="translate(605.222 246.565)" fill="#fea694" fill-rule="evenodd"/>
    <path id="Path_22" data-name="Path 22" d="M245.477,448.11c.031-.057.063-.052.094,0Z" transform="translate(603.816 -112.741)" fill="#76d294" fill-rule="evenodd"/>
    <path id="Path_23" data-name="Path 23" d="M270.519,235.75l-2.228-3.845c-.039-.067-.079-.134-.119-.2a8.349,8.349,0,0,0,1.812-1.508,7.41,7.41,0,0,0,1.254-2,.32.32,0,0,0,.051-.217h-5.3c-.679,0-.967-.291-.967-.973q0-1.42,0-2.839a.8.8,0,0,1,.878-.894q4.8-.006,9.6,0a.8.8,0,0,1,.9.761,10.2,10.2,0,0,1-.155,3.958,11.7,11.7,0,0,1-5.622,7.707A.975.975,0,0,1,270.519,235.75Z" transform="translate(585.491 97.985)" fill="#167de5" fill-rule="evenodd"/>
  </g>
</svg>
