<svg id="Group_65" data-name="Group 65" xmlns="http://www.w3.org/2000/svg" xmlns:xlink="http://www.w3.org/1999/xlink" width="18.45" height="18.487" viewBox="0 0 18.45 18.487">
  <defs>
    <clipPath id="clip-path">
      <rect id="Rectangle_101" data-name="Rectangle 101" width="18.45" height="18.487" fill="#fff"/>
    </clipPath>
  </defs>
  <g id="Group_64" data-name="Group 64" clip-path="url(#clip-path)">
    <path id="Path_906" data-name="Path 906" d="M0,16.717V1.769a.4.4,0,0,0,.034-.08A2.042,2.042,0,0,1,.853.389,2.5,2.5,0,0,1,1.8,0H16.649c.068.018.136.038.2.054a2.061,2.061,0,0,1,1.594,2.069q0,6.389,0,12.779c0,.523.006,1.047,0,1.57a2.042,2.042,0,0,1-1.319,1.872c-.155.059-.318.1-.478.142H1.8a.393.393,0,0,0-.082-.032A1.887,1.887,0,0,1,.373,17.6,5.475,5.475,0,0,1,0,16.717m6.69-5.091h4.765V6.858H6.69ZM17.353,6.858H12.576v4.766h4.778ZM11.459,1.1H6.7V5.734h4.763Zm0,11.648H6.692v4.646h4.764Zm5.9-7.008c0-.054.007-.089.007-.125q0-1.742,0-3.483a1.308,1.308,0,0,0-.045-.338.967.967,0,0,0-.991-.707c-1.207,0-2.413,0-3.62,0-.04,0-.081.007-.129.011V5.739Zm0,7.008H12.576v4.646c.047,0,.082.007.117.007q1.819,0,3.639,0a1.246,1.246,0,0,0,.337-.049.973.973,0,0,0,.693-1c0-1.149,0-2.3,0-3.447,0-.047-.005-.094-.009-.153M5.581,6.856H1.09v4.772H5.581Zm-4.5-1.12h4.5V1.086H5.425c-1.092,0-2.184,0-3.276,0A.992.992,0,0,0,1.081,2.171q0,1.371,0,2.741v.823m0,7.009v.218q0,1.66,0,3.319A1,1,0,0,0,2.189,17.4H5.576V12.745Z" fill="#fff"/>
  </g>
</svg>
