<svg id="Group_74" data-name="Group 74" xmlns="http://www.w3.org/2000/svg" xmlns:xlink="http://www.w3.org/1999/xlink" width="35.397" height="29.176" viewBox="0 0 35.397 29.176">
  <defs>
    <clipPath id="clip-path">
      <rect id="Rectangle_94" data-name="Rectangle 94" width="35.397" height="29.176" fill="#73a9f3"/>
    </clipPath>
  </defs>
  <g id="Group_60" data-name="Group 60" clip-path="url(#clip-path)">
    <path id="Path_905" data-name="Path 905" d="M17.7,4.386c.482-.519.922-1.045,1.415-1.515A9.577,9.577,0,0,1,26.7.044a9.348,9.348,0,0,1,8.152,6.511,10.8,10.8,0,0,1-1.1,9.044,27.394,27.394,0,0,1-5.18,6.321A57.765,57.765,0,0,1,20.2,28.375a4.238,4.238,0,0,1-4.87.061,53.608,53.608,0,0,1-9.888-7.908A21.25,21.25,0,0,1,1.01,14.264,10.027,10.027,0,0,1,2.226,3.532,9.27,9.27,0,0,1,14.675,1.564a12,12,0,0,1,2.766,2.522c.082.1.169.2.254.3M2.075,9.894a7.874,7.874,0,0,0,.62,3.152,18.2,18.2,0,0,0,3.717,5.538,51.808,51.808,0,0,0,9.838,8.033,2.47,2.47,0,0,0,2.942-.006,61.125,61.125,0,0,0,6.788-5.085,29.515,29.515,0,0,0,5.533-6.134,9.585,9.585,0,0,0,1.668-7.236,7.383,7.383,0,0,0-9.61-5.706,9.107,9.107,0,0,0-4.853,4.127c-.591.957-1.413.97-2,.022a11.156,11.156,0,0,0-2.288-2.7A7.388,7.388,0,0,0,5.5,3.259,7.659,7.659,0,0,0,2.075,9.894" transform="translate(0 0)" fill="#73a9f3"/>
  </g>
</svg>
