<svg id="Group_24" data-name="Group 24" xmlns="http://www.w3.org/2000/svg" xmlns:xlink="http://www.w3.org/1999/xlink" width="24.628" height="24.625" viewBox="0 0 24.628 24.625">
  <defs>
    <clipPath id="clip-path">
      <rect id="Rectangle_68" data-name="Rectangle 68" width="24.628" height="24.625" fill="#73a9f3"/>
    </clipPath>
  </defs>
  <g id="Group_23" data-name="Group 23" clip-path="url(#clip-path)">
    <path id="Path_888" data-name="Path 888" d="M12.315,24.621c-2.251,0-4.5.007-6.753,0A5.461,5.461,0,0,1,.113,20.208a5.855,5.855,0,0,1-.105-1.174Q0,12.311,0,5.588A5.458,5.458,0,0,1,5.591,0q6.724,0,13.448,0a5.457,5.457,0,0,1,5.477,4.412,5.844,5.844,0,0,1,.106,1.174q.011,6.723,0,13.446a5.451,5.451,0,0,1-4.412,5.476,6.384,6.384,0,0,1-1.261.107c-2.212.01-4.425,0-6.637,0m-.006-4.337A7.972,7.972,0,1,0,4.339,12.3a7.972,7.972,0,0,0,7.97,7.985M22.147,4.1a1.684,1.684,0,1,0-1.684,1.687A1.678,1.678,0,0,0,22.147,4.1" transform="translate(0 0.001)" fill="#73a9f3"/>
    <path id="Path_889" data-name="Path 889" d="M110.216,105.668a4.514,4.514,0,1,1-4.512-4.509,4.509,4.509,0,0,1,4.512,4.509" transform="translate(-93.385 -93.359)" fill="#73a9f3"/>
  </g>
</svg>
