<svg id="Group_9" data-name="Group 9" xmlns="http://www.w3.org/2000/svg" xmlns:xlink="http://www.w3.org/1999/xlink" width="168.892" height="112.656" viewBox="0 0 168.892 112.656">
  <defs>
    <clipPath id="clip-path">
      <rect id="Rectangle_14" data-name="Rectangle 14" width="168.892" height="112.656" fill="#fff"/>
    </clipPath>
  </defs>
  <g id="Group_8" data-name="Group 8" clip-path="url(#clip-path)">
    <path id="Path_867" data-name="Path 867" d="M168.892,100.2a15.873,15.873,0,0,1-4.357,8.489,14.719,14.719,0,0,1-10.516,3.958q-69.586.006-139.172-.014C5.931,112.628.032,106.568,0,97.657c-.02-5.508.595-6.118,6.162-6.118H14.1V89.276q0-37.019-.019-74.038c-.008-4.982,1.584-9.134,5.552-12.264A14.424,14.424,0,0,1,28.86.018Q84.43,0,140,.028c8.925.011,14.779,6.028,14.787,15.012q.032,37.1.008,74.2v2.3c3.32,0,6.438.076,9.551-.026a4.232,4.232,0,0,1,4.546,2.752ZM21.112,91.41H147.781V89.642q0-37.262,0-74.524c0-5.271-2.742-8.019-8.028-8.02Q84.436,7.089,29.12,7.1a11.22,11.22,0,0,0-2.774.252c-3.362.867-5.231,3.625-5.232,7.617q-.006,37.427,0,74.853ZM6.825,98.553a21.591,21.591,0,0,0,1.151,3.39c1.59,2.894,4.235,3.648,7.377,3.646q69.092-.051,138.185-.027a19.482,19.482,0,0,0,2.3-.09,6.709,6.709,0,0,0,5.831-6.919h-1.786q-27.291,0-54.581-.029a3.511,3.511,0,0,0-3.133,1.332,6.114,6.114,0,0,1-5.359,2.27q-12.284-.11-24.569,0c-2.311.024-4.221-.522-5.642-2.388a3.189,3.189,0,0,0-2.849-1.216q-27.456.059-54.911.028Z" transform="translate(0 -0.001)" fill="#fff"/>
  </g>
</svg>
