<svg id="Group_67" data-name="Group 67" xmlns="http://www.w3.org/2000/svg" xmlns:xlink="http://www.w3.org/1999/xlink" width="19.313" height="19.316" viewBox="0 0 19.313 19.316">
  <defs>
    <clipPath id="clip-path">
      <rect id="Rectangle_102" data-name="Rectangle 102" width="19.313" height="19.316" fill="#304773"/>
    </clipPath>
  </defs>
  <g id="Group_66" data-name="Group 66" clip-path="url(#clip-path)">
    <path id="Path_907" data-name="Path 907" d="M86.221,115.406H80.549c-.4,0-.633-.142-.716-.424a.64.64,0,0,1,.569-.869,2.717,2.717,0,0,1,.331-.01H91.745a2.484,2.484,0,0,1,.391.02.593.593,0,0,1,.541.645.645.645,0,0,1-.6.636c-.09.008-.181,0-.271,0H86.221" transform="translate(-73.366 -104.905)" fill="#304773"/>
    <path id="Path_908" data-name="Path 908" d="M86.357,205.2q2.851,0,5.7,0c.461,0,.717.226.723.624a.621.621,0,0,1-.512.649,1.924,1.924,0,0,1-.389.03q-5.536,0-11.073,0a2.139,2.139,0,0,1-.39-.027A.644.644,0,0,1,80.5,205.2c.221-.013.442,0,.664,0h5.189" transform="translate(-73.472 -188.66)" fill="#304773"/>
    <path id="Path_909" data-name="Path 909" d="M86.34,23.23q2.866,0,5.732,0c.476,0,.734.271.693.7a.623.623,0,0,1-.537.564,2.736,2.736,0,0,1-.361.016H80.8c-.1,0-.2,0-.3-.007a.594.594,0,0,1-.6-.65.585.585,0,0,1,.623-.625c.865-.008,1.729,0,2.594,0H86.34" transform="translate(-73.456 -21.356)" fill="#304773"/>
    <path id="Path_910" data-name="Path 910" d="M4.582,184.361c0,.372,0,.743,0,1.115a1.164,1.164,0,0,1-1.148,1.155q-1.1.011-2.2,0A1.213,1.213,0,0,1,0,185.383q0-1.07,0-2.14A1.213,1.213,0,0,1,1.232,182q1.055-.013,2.11,0a1.229,1.229,0,0,1,1.236,1.221c.011.381,0,.763,0,1.145Zm-3.3.995H3.31v-2.074H1.282Z" transform="translate(0 -167.322)" fill="#304773"/>
    <path id="Path_911" data-name="Path 911" d="M.756,2.267c0-.382,0-.764,0-1.146A1.1,1.1,0,0,1,1.835.01Q2.981-.01,4.127.01A1.2,1.2,0,0,1,5.269,1.192c.018.784.016,1.568,0,2.352a1.158,1.158,0,0,1-1.12,1.1q-1.115.027-2.232,0a1.209,1.209,0,0,1-1.161-1.2c-.007-.392,0-.784,0-1.176Zm3.255-.98H1.975V3.355H4.011Z" transform="translate(-0.694 0)" fill="#304773"/>
    <path id="Path_912" data-name="Path 912" d="M3.072,91.8c.332,0,.664-.008,1,0a1.225,1.225,0,0,1,1.274,1.3q0,.98,0,1.961a1.251,1.251,0,0,1-1.221,1.308c-.713.029-1.429.027-2.142,0A1.2,1.2,0,0,1,.763,95.085c0-.674,0-1.348,0-2.021a1.2,1.2,0,0,1,1.193-1.253c.371-.019.744,0,1.116,0v0M1.977,95.1H4.02V93.025H1.977Z" transform="translate(-0.699 -84.402)" fill="#304773"/>
  </g>
</svg>
