<svg id="Group_34" data-name="Group 34" xmlns="http://www.w3.org/2000/svg" xmlns:xlink="http://www.w3.org/1999/xlink" width="18.553" height="27.908" viewBox="0 0 18.553 27.908">
  <defs>
    <clipPath id="clip-path">
      <rect id="Rectangle_75" data-name="Rectangle 75" width="18.553" height="27.908" fill="#898989"/>
    </clipPath>
  </defs>
  <g id="Group_33" data-name="Group 33" clip-path="url(#clip-path)">
    <path id="Path_900" data-name="Path 900" d="M8.136,27.908c-.54-.055-1.082-.1-1.62-.166a12.587,12.587,0,0,1-4.749-1.374A5.1,5.1,0,0,1,.508,25.35a1.847,1.847,0,0,1-.023-2.511,5.008,5.008,0,0,1,2.063-1.42,14.38,14.38,0,0,1,3.379-.9c-.082-.113-.146-.2-.213-.292-1.21-1.6-2.452-3.175-3.622-4.8a10.952,10.952,0,0,1-1.94-4.452A9.328,9.328,0,0,1,7.45.182C7.821.107,8.2.06,8.572,0H9.935c.6.109,1.2.179,1.787.334a9.278,9.278,0,0,1,6.785,8.1,10.171,10.171,0,0,1-1.671,6.438c-1.069,1.7-2.349,3.251-3.575,4.839-.2.258-.4.514-.623.8.454.09.878.165,1.3.26a9.446,9.446,0,0,1,2.945,1.092,5.261,5.261,0,0,1,1.116.9,1.9,1.9,0,0,1,0,2.683,4.919,4.919,0,0,1-1.751,1.219,14.282,14.282,0,0,1-4.2,1.081c-.539.066-1.08.111-1.621.166Zm1.138-4.766c.065-.079.111-.132.154-.187,1.088-1.431,2.186-2.854,3.262-4.294s2.2-2.872,3.2-4.372A8.687,8.687,0,0,0,17.356,8a8.2,8.2,0,1,0-15.679,4.4,15.589,15.589,0,0,0,2.231,3.725c1.626,2.14,3.27,4.266,4.906,6.4.153.2.3.4.46.627m0,3.69c.5-.029,1.358-.054,2.207-.131a14.413,14.413,0,0,0,3.895-.861,4.689,4.689,0,0,0,1.7-1,.907.907,0,0,0-.009-1.485,4.618,4.618,0,0,0-.953-.67,12.026,12.026,0,0,0-4.092-1.143.406.406,0,0,0-.3.16c-.639.849-1.268,1.7-1.9,2.561-.368.5-.731.5-1.1,0-.627-.858-1.261-1.71-1.885-2.57a.318.318,0,0,0-.365-.15c-.842.181-1.694.321-2.524.543a5.673,5.673,0,0,0-2.37,1.173c-.652.58-.666,1.144.022,1.684a6.025,6.025,0,0,0,1.427.827,17.558,17.558,0,0,0,6.24,1.062" transform="translate(0)" fill="#898989"/>
    <path id="Path_901" data-name="Path 901" d="M82.827,78.807A3.815,3.815,0,1,1,79.006,75a3.823,3.823,0,0,1,3.821,3.8M79.01,81.544a2.725,2.725,0,1,0-2.723-2.719,2.734,2.734,0,0,0,2.723,2.719" transform="translate(-69.731 -69.553)" fill="#898989"/>
    <path id="Path_902" data-name="Path 902" d="M155.838,41.859c0,.116,0,.2,0,.28a.553.553,0,0,1-.545.563.583.583,0,0,1-.547-.566,10.91,10.91,0,0,0-.312-1.9,5.806,5.806,0,0,0-3.55-3.736c-.346-.138-.507-.339-.475-.609a.553.553,0,0,1,.8-.431,6.945,6.945,0,0,1,3.127,2.279,7.052,7.052,0,0,1,1.506,4.116" transform="translate(-139.472 -32.841)" fill="#898989"/>
    <path id="Path_903" data-name="Path 903" d="M122.018,30.574a.554.554,0,0,1-.565.537.543.543,0,0,1,.039-1.086.554.554,0,0,1,.525.549" transform="translate(-112.143 -27.843)" fill="#898989"/>
  </g>
</svg>
