<svg id="Group_7" data-name="Group 7" xmlns="http://www.w3.org/2000/svg" xmlns:xlink="http://www.w3.org/1999/xlink" width="71.466" height="119.011" viewBox="0 0 71.466 119.011">
  <defs>
    <clipPath id="clip-path">
      <rect id="Rectangle_13" data-name="Rectangle 13" width="71.465" height="119.011" fill="#fff"/>
    </clipPath>
  </defs>
  <g id="Group_6" data-name="Group 6" clip-path="url(#clip-path)">
    <path id="Path_863" data-name="Path 863" d="M10.394,119.01c-1.83-.781-3.845-1.293-5.451-2.4C1.443,114.2-.008,110.628,0,106.4.03,96.563.012,86.727.012,76.89q0-32.065-.012-64.13A12.2,12.2,0,0,1,4.8,2.447,11.99,11.99,0,0,1,12.377,0q18.3.034,36.6.01c3.37,0,6.739-.007,10.109,0A11.979,11.979,0,0,1,71.447,12.064c.029,1.045.006,2.091.006,3.137q0,45.541.012,91.082c0,4.271-1.4,7.886-4.943,10.328-1.6,1.107-3.621,1.618-5.451,2.4Zm-4.417-59.5q0,23.413,0,46.826c0,4.322,2.354,6.7,6.659,6.706q23.068.012,46.137,0c4.381,0,6.714-2.364,6.714-6.767q0-46.768,0-93.536c0-4.4-2.334-6.763-6.717-6.765Q35.7,5.966,12.634,5.982a8.884,8.884,0,0,0-2.186.205c-2.843.732-4.467,3.03-4.468,6.265q-.008,23.529,0,47.059" transform="translate(0 0.001)" fill="#fff"/>
    <path id="Path_864" data-name="Path 864" d="M108.292,345.806a5.927,5.927,0,0,1-5.922-5.9,5.938,5.938,0,1,1,11.875.033,5.922,5.922,0,0,1-5.954,5.871" transform="translate(-72.575 -236.746)" fill="#fff"/>
    <path id="Path_865" data-name="Path 865" d="M118.027,40.053c-1.9,0-3.791.023-5.685-.006a2.954,2.954,0,1,1-.014-5.9q5.8-.044,11.6,0a2.949,2.949,0,1,1,.013,5.89c-1.972.035-3.945.008-5.917.009" transform="translate(-77.414 -24.197)" fill="#fff"/>
    <path id="Path_866" data-name="Path 866" d="M78.068,40.109a2.942,2.942,0,1,1,2.947-2.972,3.048,3.048,0,0,1-2.947,2.972" transform="translate(-53.213 -24.264)" fill="#fff"/>
  </g>
</svg>
