<svg id="Group_251" data-name="Group 251" xmlns="http://www.w3.org/2000/svg" xmlns:xlink="http://www.w3.org/1999/xlink" width="32.052" height="25.722" viewBox="0 0 32.052 25.722">
  <defs>
    <clipPath id="clip-path">
      <rect id="Rectangle_859" data-name="Rectangle 859" width="32.052" height="25.722" fill="#898989"/>
    </clipPath>
  </defs>
  <g id="Group_250" data-name="Group 250" clip-path="url(#clip-path)">
    <path id="Path_1546" data-name="Path 1546" d="M11.7,60.411a1.4,1.4,0,0,1,.074-.446.9.9,0,0,0-.008-1.094.34.34,0,0,1-.067-.15c-.09-.547-.48-.745-.926-1.014a2.214,2.214,0,0,0-1.278-.223c-2.02-.016-4.04,0-6.059-.011a.439.439,0,0,0-.465.258,1.558,1.558,0,0,1-1.779.761,1.6,1.6,0,0,1-.015-3.083,1.556,1.556,0,0,1,1.785.743.442.442,0,0,0,.462.263c2.252-.007,4.5,0,6.755-.006.171,0,.332.045.465-.184.083-.143.382-.144.558-.252a.959.959,0,0,0,.329-.354c.118-.223.156-.493.294-.7a.761.761,0,0,0,.008-.856c-.078-.155-.274-.319-.091-.538.015-.018-.057-.128-.106-.178-.669-.674-1.338-1.349-2.017-2.013a.5.5,0,0,0-.318-.123q-2.98-.011-5.96,0a.486.486,0,0,0-.34.216,1.619,1.619,0,0,1-1.842.772,1.6,1.6,0,0,1,.019-3.075,1.562,1.562,0,0,1,1.8.773.417.417,0,0,0,.443.239c2.02-.005,4.04,0,6.059-.008a1,1,0,0,1,.789.326c.659.684,1.336,1.351,2.011,2.02.111.11.2.32.42.164.021-.014.086.019.12.044a1.126,1.126,0,0,0,1.416-.025.379.379,0,0,1,.155-.055.784.784,0,0,0,.706-.7.387.387,0,0,1,.514-.351.755.755,0,0,0,.264,0c.594-.109.986.069,1.1.716.016.092.166.182.273.231.279.13.582.213.85.36a.582.582,0,0,0,.579.027c.223-.1.425-.323.722-.189.033.015.131-.1.193-.165.7-.7,1.4-1.385,2.08-2.091a.969.969,0,0,1,.763-.307c2.02.008,4.04,0,6.059.009a.444.444,0,0,0,.461-.266,1.559,1.559,0,0,1,1.784-.75,1.6,1.6,0,0,1,.028,3.075,1.566,1.566,0,0,1-1.814-.746.422.422,0,0,0-.433-.256c-1.943.008-3.885,0-5.828.013a.727.727,0,0,0-.454.19c-.644.62-1.272,1.259-1.9,1.894-.09.091-.194.145-.108.346.056.131-.094.366-.184.539a.525.525,0,0,0,.015.641.628.628,0,0,1,.115.237c.142.561.392,1.015,1.033,1.106.244.384.63.237.962.238,2.108.01,4.216,0,6.324.009a.442.442,0,0,0,.465-.259,1.558,1.558,0,0,1,1.815-.739,1.6,1.6,0,0,1-.04,3.074,1.557,1.557,0,0,1-1.781-.756.442.442,0,0,0-.463-.262c-2.241.007-4.481,0-6.722.005-.186,0-.349-.03-.494.2-.1.151-.4.158-.587.266a.788.788,0,0,0-.288.31,5.676,5.676,0,0,1-.247.611.946.946,0,0,0-.005,1.1.664.664,0,0,1,.01.48c.758.757,1.512,1.518,2.277,2.267a.542.542,0,0,0,.346.13c1.976.008,3.951,0,5.927.01a.347.347,0,0,0,.356-.214,1.565,1.565,0,0,1,1.822-.791,1.595,1.595,0,0,1-.026,3.08,1.557,1.557,0,0,1-1.791-.8.39.39,0,0,0-.42-.221c-2.031,0-4.062,0-6.092.008a.969.969,0,0,1-.759-.317c-.63-.651-1.272-1.29-1.918-1.925-.211-.207-.367-.526-.751-.447-.527-.41-1.008-.181-1.547.028a1.068,1.068,0,0,0-.779.809c-.051.242-.2.3-.43.29a7.99,7.99,0,0,0-.894,0c-.186.009-.295-.052-.33-.236a.974.974,0,0,0-.881-.868.2.2,0,0,1-.093-.034,1.228,1.228,0,0,0-1.336-.044,2.355,2.355,0,0,0-.826.573c-.6.6-1.19,1.217-1.812,1.8a1.086,1.086,0,0,1-.665.274c-2.042.021-4.084.015-6.125.008a.418.418,0,0,0-.437.248,1.556,1.556,0,0,1-1.808.755,1.594,1.594,0,0,1,.04-3.079,1.556,1.556,0,0,1,1.773.773.417.417,0,0,0,.437.248c1.932-.007,3.863,0,5.794-.013a.772.772,0,0,0,.482-.2c.708-.681,1.4-1.382,2.094-2.076l-.085-.062m1.727-3.461a2.534,2.534,0,1,0,2.542-2.543,2.543,2.543,0,0,0-2.542,2.543" transform="translate(0 -44.731)" fill="#898989"/>
    <path id="Path_1547" data-name="Path 1547" d="M115.108,199.42c0,1.495.013,2.953-.007,4.411a1.088,1.088,0,0,1-1.02,1.041,3.2,3.2,0,0,1-.364.009H102.464c-.984,0-1.387-.4-1.388-1.386q0-1.89,0-3.78v-.4c.21,0,.394-.008.577,0a1.8,1.8,0,0,0,1.449-.592q.9-.931,1.826-1.828c.3-.292.656-.5,1.085-.221a.783.783,0,0,1,.289.318,1.15,1.15,0,0,0,1.265.848c.4,0,.795.006,1.192,0a1.088,1.088,0,0,0,1.061-.7.835.835,0,0,1,1.463-.262c.609.594,1.222,1.185,1.8,1.809a1.981,1.981,0,0,0,1.729.719,2.219,2.219,0,0,1,.3.015m-7.037,3.387c.462,0,.925.006,1.387,0,.4-.006.624-.2.627-.526s-.22-.535-.615-.538q-1.37-.012-2.741,0c-.4,0-.624.2-.627.526s.227.534.648.539c.44.006.881,0,1.321,0" transform="translate(-92.135 -179.159)" fill="#898989"/>
    <path id="Path_1548" data-name="Path 1548" d="M101.058,4.339V2.518c0-.453-.005-.907,0-1.36A1.1,1.1,0,0,1,102.078.014c.3-.03.614-.005.944-.005.164.664.326,1.315.486,1.966.17.7.313.812,1.017.812h7.216c.546,0,.723-.131.862-.666.18-.694.348-1.39.523-2.09a7.805,7.805,0,0,1,1.059.009,1.033,1.033,0,0,1,.9,1c.022,1.082.007,2.165.007,3.3-.232,0-.449,0-.665,0A1.723,1.723,0,0,0,113.1,4.9q-.83.856-1.687,1.686a1.814,1.814,0,0,1-.511.342.716.716,0,0,1-1.081-.434,1.069,1.069,0,0,0-1.069-.732c-.463,0-.927,0-1.39,0a.958.958,0,0,0-.977.657.772.772,0,0,1-.713.616,1.4,1.4,0,0,1-.836-.374c-.575-.514-1.119-1.067-1.643-1.635a1.956,1.956,0,0,0-1.676-.687c-.14.011-.282,0-.454,0" transform="translate(-92.117 0.001)" fill="#898989"/>
    <path id="Path_1549" data-name="Path 1549" d="M135.764.154h7.9c-.17.492-.308.964-.5,1.41a.562.562,0,0,1-.437.222c-2.008.015-4.015.017-6.023,0a.648.648,0,0,1-.485-.3,12.791,12.791,0,0,1-.455-1.326" transform="translate(-123.755 -0.14)" fill="#898989"/>
    <path id="Path_1550" data-name="Path 1550" d="M101.262,159.154v-3.139a2.035,2.035,0,0,1,1.5.229.874.874,0,0,1,.335.629,1.41,1.41,0,0,1-.317.811c-.423.493-.91.932-1.372,1.391a.738.738,0,0,1-.15.078" transform="translate(-92.305 -142.178)" fill="#898989"/>
    <path id="Path_1551" data-name="Path 1551" d="M240.694,84.453v3.11a2.03,2.03,0,0,1-1.547-.229.81.81,0,0,1-.287-.648,1.822,1.822,0,0,1,.418-.834c.34-.4.739-.759,1.115-1.133.073-.073.155-.137.3-.265" transform="translate(-217.728 -76.983)" fill="#898989"/>
    <path id="Path_1552" data-name="Path 1552" d="M240.505,156.114v3.171c-.168-.165-.3-.288-.422-.414-.3-.3-.573-.614-.892-.883a2.124,2.124,0,0,1-.525-.932c-.076-.187.181-.637.363-.741a2.447,2.447,0,0,1,1.476-.2" transform="translate(-217.542 -142.282)" fill="#898989"/>
    <path id="Path_1553" data-name="Path 1553" d="M101.08,87.912c0-.977,0-1.926,0-2.875,0-.051.009-.1.02-.219a3.176,3.176,0,0,1,.255.2c.338.334.653.695,1.014,1a2.133,2.133,0,0,1,.55.921.868.868,0,0,1-.349.782,2.592,2.592,0,0,1-1.491.19" transform="translate(-92.138 -77.315)" fill="#898989"/>
  </g>
</svg>
