<svg id="Group_263" data-name="Group 263" xmlns="http://www.w3.org/2000/svg" xmlns:xlink="http://www.w3.org/1999/xlink" width="23.783" height="23.77" viewBox="0 0 23.783 23.77">
  <defs>
    <clipPath id="clip-path">
      <rect id="Rectangle_865" data-name="Rectangle 865" width="23.783" height="23.77" fill="#898989"/>
    </clipPath>
  </defs>
  <g id="Group_262" data-name="Group 262" clip-path="url(#clip-path)">
    <path id="Path_1563" data-name="Path 1563" d="M2.551,86.085A3.389,3.389,0,0,1,.414,84.419a3.156,3.156,0,0,1-.408-1.547c0-2.6-.015-5.2,0-7.8a3.373,3.373,0,0,1,3.27-3.292c.91-.017,1.821-.007,2.732,0a.419.419,0,0,1,.267.118c.415.423.824.851,1.222,1.29a.617.617,0,0,1,.138.344c.021.255,0,.512.007.769a.839.839,0,0,0,.848.867q3.4.008,6.791,0a.84.84,0,0,0,.848-.841.636.636,0,0,0,0-.132,1.494,1.494,0,0,1,.613-1.515c.279-.226.5-.527.754-.782a.426.426,0,0,1,.267-.118c.911-.008,1.822-.018,2.732,0a3.363,3.363,0,0,1,3.265,3.24c.028,2.644.022,5.288,0,7.931a3.343,3.343,0,0,1-2.331,3.073c-.058.018-.119.026-.206.045,0-.251,0-.488,0-.724a1.7,1.7,0,0,0-1.683-1.727c-.264-.009-.58.074-.779-.043s-.269-.44-.418-.658a.32.32,0,0,1,0-.381,4.912,4.912,0,0,0,.488-1.077,1.5,1.5,0,0,0-.7-1.7c-1.023-.645-2.068-1.258-3.125-1.846a1.652,1.652,0,0,0-2.219.622.307.307,0,0,0-.042.067.906.906,0,0,1-1.177.677.369.369,0,0,1-.222-.129c-.128-.19-.227-.4-.347-.594a1.667,1.667,0,0,0-2.283-.62q-1.533.868-3.034,1.793a1.647,1.647,0,0,0-.6,2.184c.114.229.259.443.367.675a.672.672,0,0,1,0,.283c0,.015-.019.029-.028.044-.133.228-.215.544-.414.66s-.515.032-.78.041a1.7,1.7,0,0,0-1.681,1.729c0,.229,0,.459,0,.736" transform="translate(0 -66.684)" fill="#898989"/>
    <path id="Path_1564" data-name="Path 1564" d="M64.995,175.25H59.913a3.426,3.426,0,0,0-1.442-2.755,3.262,3.262,0,0,0-2.252-.618,3.416,3.416,0,0,0-3.119,3.364H48.033a8.257,8.257,0,0,1,.009-1.041.815.815,0,0,1,.858-.678c.371-.007.743-.009,1.114,0a.266.266,0,0,0,.276-.181c.245-.459.515-.9.76-1.361a.37.37,0,0,0,.016-.3c-.171-.338-.37-.663-.553-1a.852.852,0,0,1,.328-1.248q1.39-.825,2.782-1.645a.865.865,0,0,1,1.333.365c.175.307.339.621.527.919a.362.362,0,0,0,.26.136c.511.013,1.023.013,1.535,0a.332.332,0,0,0,.241-.126c.2-.322.377-.659.568-.987a.839.839,0,0,1,1.24-.34q1.43.834,2.852,1.683a.848.848,0,0,1,.322,1.23c-.187.341-.389.673-.567,1.018a.341.341,0,0,0,.015.274q.378.7.785,1.378a.367.367,0,0,0,.248.163c.362.018.725,0,1.087.008a.861.861,0,0,1,.923.931c0,.256,0,.512,0,.8" transform="translate(-44.616 -155.737)" fill="#898989"/>
    <path id="Path_1565" data-name="Path 1565" d="M89.79,290.816c-1.679,0-3.358,0-5.038,0a.846.846,0,0,1-.84-1.153.809.809,0,0,1,.777-.54c.38-.01.76.008,1.14-.009a.457.457,0,0,0,.311-.138c.365-.473.709-.962,1.068-1.44a.3.3,0,0,1,.2-.109q2.386-.009,4.772,0a.3.3,0,0,1,.2.117c.365.484.718.978,1.088,1.459a.392.392,0,0,0,.271.112c.371.013.742,0,1.113.006a.848.848,0,1,1,0,1.7c-1.688,0-3.376,0-5.064,0" transform="translate(-77.906 -267.047)" fill="#898989"/>
    <path id="Path_1566" data-name="Path 1566" d="M86.305,7.638c0-.4.01-.782-.006-1.159a.53.53,0,0,0-.131-.318c-.391-.409-.789-.811-1.2-1.2a1.029,1.029,0,0,1-.363-.869c.007-.079-.006-.16,0-.238a1.109,1.109,0,0,0-.38-1.03,1.621,1.621,0,0,1,.09-2.383A1.691,1.691,0,1,1,86.53,3a.769.769,0,0,0-.047,1.072c.406.406.81.815,1.22,1.217a.962.962,0,0,1,.3.735c-.007.528,0,1.057,0,1.616h-1.7Z" transform="translate(-77.812 0.001)" fill="#898989"/>
    <path id="Path_1567" data-name="Path 1567" d="M193.359,7.635h-1.7c0-.344,0-.685,0-1.025,0-1.116-.078-.94.712-1.73.244-.244.477-.5.735-.727a.731.731,0,0,0,.259-.621.666.666,0,0,0-.264-.574,1.655,1.655,0,0,1-.126-2.427,1.7,1.7,0,0,1,2.443-.02,1.659,1.659,0,0,1-.087,2.43.709.709,0,0,0-.283.618c.012,1.138.092.951-.73,1.773-.269.269-.546.53-.8.811a.632.632,0,0,0-.153.362c-.02.368-.007.738-.007,1.13" transform="translate(-178.074 -0.001)" fill="#898989"/>
    <path id="Path_1568" data-name="Path 1568" d="M146.306,7.659h-1.7V7.378c0-1.308,0-2.617,0-3.925a.456.456,0,0,0-.2-.415,1.659,1.659,0,0,1-.475-2.071,1.7,1.7,0,0,1,3.214.817,1.617,1.617,0,0,1-.688,1.286.353.353,0,0,0-.16.327c0,1.317,0,2.634,0,3.951Z" transform="translate(-133.568 -0.025)" fill="#898989"/>
    <path id="Path_1569" data-name="Path 1569" d="M137.077,242.056h-5.049a2.525,2.525,0,1,1,5.049,0" transform="translate(-122.664 -222.546)" fill="#898989"/>
  </g>
</svg>
