<svg id="Group_93" data-name="Group 93" xmlns="http://www.w3.org/2000/svg" xmlns:xlink="http://www.w3.org/1999/xlink" width="58.975" height="54.328" viewBox="0 0 58.975 54.328">
  <defs>
    <clipPath id="clip-path">
      <rect id="Rectangle_173" data-name="Rectangle 173" width="58.975" height="54.328" fill="none"/>
    </clipPath>
  </defs>
  <g id="Group_92" data-name="Group 92" clip-path="url(#clip-path)">
    <path id="Path_939" data-name="Path 939" d="M0,6.38A17.938,17.938,0,0,1,.608,4.6,7.485,7.485,0,0,1,7.222.017C7.391,0,7.562,0,7.732,0Q26.6,0,45.478.006a7.529,7.529,0,0,1,7.61,6.24,9.4,9.4,0,0,1,.134,1.715q.012,11.785,0,23.571c0,.19-.03.38-.046.569-.19-.169-.389-.328-.568-.508q-5.773-5.785-11.534-11.581a1.481,1.481,0,0,1-.255-.5L24.6,35.555,13.331,24.283a5.777,5.777,0,0,1-.479.635Q6.7,31.089.53,37.247c-.162.162-.353.3-.53.444V6.38M29.041,18a4.7,4.7,0,0,0-4.72-4.742,4.757,4.757,0,0,0-4.752,4.739,4.809,4.809,0,0,0,4.716,4.733A4.742,4.742,0,0,0,29.041,18" transform="translate(0 0)" fill="#4a566e"/>
    <path id="Path_940" data-name="Path 940" d="M0,91.848c.177-.147.368-.282.53-.444Q6.7,85.244,12.852,79.076a5.839,5.839,0,0,0,.479-.636L24.6,89.712,40.821,73.673a1.478,1.478,0,0,0,.255.5q5.756,5.8,11.534,11.581c.179.18.378.339.568.508l.112.917c-.657.069-1.263.122-1.866.2A12.2,12.2,0,0,0,41.15,97.693a12.059,12.059,0,0,0,3.243,10.147c.115.125.222.256.332.384a5.132,5.132,0,0,1-.736.105q-10.531.009-21.063,0l-16.595,0A7.157,7.157,0,0,1,.8,104.3a18.148,18.148,0,0,1-.8-2.1V91.848" transform="translate(0 -54.157)" fill="#00b493"/>
    <path id="Path_941" data-name="Path 941" d="M186.7,148.855q0,1.394,0,2.789c0,1.447.019,2.9-.014,4.342a1.756,1.756,0,0,1-3.513,0c-.03-2.15-.013-4.3-.015-6.45,0-.228,0-.456,0-.88-.4.4-.664.676-.943.945a1.737,1.737,0,1,1-2.456-2.445q1.924-2,3.872-3.984a1.752,1.752,0,0,1,2.519-.03c1.357,1.351,2.706,2.711,4.023,4.1a1.72,1.72,0,0,1-.783,2.894,1.62,1.62,0,0,1-1.643-.441c-.3-.295-.557-.638-.833-.959l-.214.122" transform="translate(-131.706 -104.84)" fill="#01b594"/>
    <path id="Path_942" data-name="Path 942" d="M23.9,204.218l16.595,0q10.532,0,21.063-.005a5.11,5.11,0,0,0,.736-.105l.3.22c-.284.019-.459.04-.633.04q-18.311,0-36.621-.005c-.481,0-.962-.091-1.443-.14" transform="translate(-17.572 -150.036)" fill="#1d9186"/>
    <path id="Path_943" data-name="Path 943" d="M83.346,54.782a4.742,4.742,0,0,1-4.756,4.729,4.809,4.809,0,0,1-4.716-4.733,4.757,4.757,0,0,1,4.752-4.739,4.7,4.7,0,0,1,4.72,4.742" transform="translate(-54.305 -36.784)" fill="#fdca04"/>
  </g>
</svg>
