<svg id="Group_29" data-name="Group 29" xmlns="http://www.w3.org/2000/svg" xmlns:xlink="http://www.w3.org/1999/xlink" width="45.642" height="48.705" viewBox="0 0 45.642 48.705">
  <defs>
    <clipPath id="clip-path">
      <rect id="Rectangle_73" data-name="Rectangle 73" width="45.642" height="48.705" fill="none"/>
    </clipPath>
  </defs>
  <g id="Group_28" data-name="Group 28" clip-path="url(#clip-path)">
    <path id="Path_891" data-name="Path 891" d="M28.087,237.591c-.67-.225-1.341-.448-2.009-.679a1.36,1.36,0,0,1-.243-.134l22.344-22.344,9.064,8.363c-1.141.632-2.234,1.237-3.328,1.841Q43.063,230.628,32.2,236.6a19.747,19.747,0,0,1-2.592.989Z" transform="translate(-22.757 -188.886)"/>
    <path id="Path_892" data-name="Path 892" d="M.867,24.339l22.2,20.48L.783,67.1a5.249,5.249,0,0,1-.75-2.33A7.568,7.568,0,0,1,0,63.959Q0,45.791,0,27.623a6.037,6.037,0,0,1,.867-3.284" transform="translate(0 -21.439)"/>
    <path id="Path_893" data-name="Path 893" d="M25.9.8A6.007,6.007,0,0,1,30.62.26a8.221,8.221,0,0,1,1.564.672q11.441,6.3,22.869,12.613c.149.082.292.175.4.238l-7.423,7.433L25.9.8" transform="translate(-22.815 -0.001)"/>
    <path id="Path_894" data-name="Path 894" d="M230.979,137.5c.123-.133.215-.24.314-.339q3.666-3.665,7.328-7.334a.5.5,0,0,1,.719-.125c2.181,1.226,4.38,2.418,6.565,3.638a5.769,5.769,0,0,1,.056,10.3c-1.63.915-3.273,1.8-4.9,2.715a.38.38,0,0,1-.533-.042c-3.163-2.93-6.333-5.852-9.545-8.815" transform="translate(-203.46 -114.162)"/>
  </g>
</svg>
