<svg id="Group_122" data-name="Group 122" xmlns="http://www.w3.org/2000/svg" width="292.85" height="429.6" viewBox="0 0 292.85 429.6">
  <path id="Path_1036" data-name="Path 1036" d="M292.85,314.52V429.6H0V314.28H179.86q.03,18.285.12,36.56a40.905,40.905,0,0,0,.74,5.46c-.22,2.78-.54,5.55-.63,8.32-.09,2.62,1.25,4.13,3.94,4.4,2.75.27,4.51-1.25,4.74-3.62.3-3.24-.17-6.54-.31-9.82.17-1.6.47-3.19.48-4.78.09-9.94.11-19.88.16-29.82,7.42-1.27,14.96-2.12,22.25-3.93a74.523,74.523,0,0,0,8.89-2.77,49.219,49.219,0,0,0,17.29-10.88c14.7-14.65,15.29-32.54,10.65-51.37,10.33,1.8,18.98,6.94,26.91,13.52,7.26,7.41,13.27,15.77,15.44,25.99,1.56,7.4,1.6,15.14,2.3,22.74.01.08.01.16.02.24" transform="translate(0 0)" fill="#73a9f3"/>
  <path id="Path_1037" data-name="Path 1037" d="M179.86,314.28h40.38a74.488,74.488,0,0,1-8.89,2.77c-7.29,1.81-14.83,2.66-22.25,3.93-.05,9.94-.07,19.88-.16,29.82-.01,1.59-.31,3.18-.48,4.78.14,3.28.61,6.58.31,9.82-.23,2.37-1.99,3.89-4.74,3.62-2.69-.27-4.03-1.78-3.94-4.4.09-2.77.41-5.54.63-8.32a40.88,40.88,0,0,1-.74-5.46q-.105-18.285-.12-36.56" transform="translate(0 0)" fill="#e82a32"/>
  <path id="Path_1038" data-name="Path 1038" d="M179.86,314.28h-.63v-6.64c.2-2.3.41-4.6.61-6.89q.015,6.765.02,13.53" transform="translate(0 0)" fill="#e82a32"/>
  <path id="Path_1039" data-name="Path 1039" d="M240.706,0q.01,15.309.02,30.618c-.075,2.868-.158,5.734-.224,8.6-.251,10.855-4.462,19.621-13.819,25.432-2.129,1.323-2.684,2.747-2.675,5.089.051,13.241-.053,26.483-.1,39.725a35.384,35.384,0,0,1-.452-3.991c-.037-10.56-.021-21.121-.021-31.681V67.6l-15.373,1.483q-11.967-.006-23.933-.015-32.346-.07-64.691-.157c0-6.735-.132-13.473.046-20.2.124-4.7.089-9.522,1.136-14.055,3.919-16.981,14.687-27.7,31.171-32.887A13.211,13.211,0,0,0,154.618,0Z" transform="translate(0.001)" fill="#2a2f33"/>
  <path id="Path_1040" data-name="Path 1040" d="M154.618,0a13.213,13.213,0,0,1-2.831,1.766C135.3,6.951,124.535,17.672,120.616,34.653c-1.047,4.533-1.012,9.356-1.136,14.055-.178,6.731-.046,13.469-.046,20.2-7.482.033-14.972.286-22.446.045-9.894-.32-18.577,6.932-18.222,18.209.447,14.235.148,28.5.088,42.746-.031,7.164-3.535,11.078-10.3,11.8q-.117-5.326-.234-10.653,0-3.706-.008-7.412,0-6.93,0-13.86c.057-19.933.392-39.87.063-59.8-.186-11.281,1.75-21.731,7.975-31.229C83.977,8.787,93.73,2.33,106.33.568c.15-.021.253-.371.378-.568h2.246a11.054,11.054,0,0,0,2.726.722q18.975.069,37.949-.007A11.316,11.316,0,0,0,152.372,0Z" transform="translate(-0.001)" fill="#1e2122"/>
  <path id="Path_1041" data-name="Path 1041" d="M152.372,0a11.326,11.326,0,0,1-2.743.715Q130.656.79,111.68.722A11.032,11.032,0,0,1,108.954,0Z" transform="translate(0.001)" fill="#2c3033"/>
  <path id="Path_1042" data-name="Path 1042" d="M214.186,204.812c11.878,9.795,20.916,21.589,25.362,36.54.88,2.957,1.306,6.051,1.941,9.081-.008,5.433.313,10.891-.1,16.294-.772,10.194-5.479,18.531-13.333,24.948-11.3,9.237-24.908,12.425-38.938,14.354-.05-1.11-.151-2.22-.138-3.329.032-2.712-.684-5.042-3.649-5.647-2.909-.594-4.682.942-5.5,3.7q-.3,3.444-.6,6.886c-4.94.2-9.882.616-14.821.574-16.255-.14-32.508-.445-48.762-.686-.074-2.107.007-4.234-.26-6.317-.339-2.649-1.819-4.345-4.7-4.251-2.692.087-4,1.74-4.324,4.243-.205,1.593-.21,3.212-.3,4.82-12.339-1.885-24.4-4.727-34.9-11.88C60.54,286.9,54.8,276.731,54.316,263.785c-.174-4.677-.036-9.365-.04-14.048a72.019,72.019,0,0,1,14.31-31.6c1.244-1.551,2.5-3.093,3.75-4.641l7.372-6.633q9.778,10.543,19.559,21.085c-9.049,1.595-15.091,7.959-15.773,16.416-1.42,17.6,5.755,31.464,19.252,41.9,18.875,14.593,40.375,18.251,63.406,12.914,14.819-3.434,27.583-10.522,37.053-22.783a45.257,45.257,0,0,0,9.608-27.337c.1-6.176-.889-12.79-6.541-16.726-3.381-2.355-7.593-3.511-11.431-5.206,2.477-2.409,5.166-4.639,7.385-7.267,4.131-4.893,7.988-10.017,11.96-15.045" transform="translate(0.001 0)" fill="#73a9f3"/>
  <path id="Path_1043" data-name="Path 1043" d="M189.122,306.029c14.03-1.928,27.635-5.117,38.939-14.354,7.853-6.417,12.56-14.754,13.332-24.948.409-5.4.088-10.861.1-16.294l6.691,1.6c4.638,18.834,4.048,36.719-10.653,51.374-7.192,7.171-16.435,11.238-26.176,13.651-7.3,1.806-14.828,2.651-22.254,3.924q.012-7.476.025-14.95" transform="translate(0 0)" fill="#304773"/>
  <path id="Path_1044" data-name="Path 1044" d="M115.649,307.523c16.254.241,32.507.546,48.762.686,4.939.042,9.881-.371,14.821-.574,0,4.726,0,9.45,0,14.527-3.929.371-7.693.907-11.471,1.046-9.8.36-19.677-.122-29.372,1.026-6.891.816-13.534,3.732-20.286,5.716-.823.242-1.638.517-2.456.777q0-11.6,0-23.2" transform="translate(0.001 0)" fill="#304773"/>
  <path id="Path_1045" data-name="Path 1045" d="M115.649,307.523q0,11.6,0,23.2-.023,12.148-.044,24.3c-3.392,3.645-5.036,3.847-8.619,1.064q-.341-7.26-.683-14.519c-.065-1.364-.155-2.726-.234-4.089q0-15.734-.009-31.464c.1-1.606.1-3.226.3-4.819.322-2.5,1.632-4.156,4.324-4.243,2.885-.093,4.365,1.6,4.7,4.251.267,2.083.186,4.21.26,6.317" transform="translate(0 0)" fill="#fdf0ef"/>
  <path id="Path_1046" data-name="Path 1046" d="M189.122,306.029q-.012,7.475-.025,14.95c-.044,9.94-.067,19.881-.154,29.821-.014,1.594-.312,3.185-.48,4.777-2.319,3.013-4.909,3.151-7.738.728a40.985,40.985,0,0,1-.747-5.466c-.093-16.7-.105-33.393-.141-50.09.816-2.753,2.59-4.29,5.5-3.7,2.965.6,3.681,2.935,3.649,5.647-.013,1.109.089,2.219.138,3.329" transform="translate(-0.001 0)" fill="#fef6f6"/>
  <path id="Path_1047" data-name="Path 1047" d="M106.983,356.089c3.583,2.783,5.227,2.58,8.618-1.064.022,2.969.17,5.945.028,8.908-.126,2.647-1.052,4.776-4.231,5.112-3.388.358-4.985-1.581-5.16-4.424-.174-2.818.463-5.686.745-8.532" transform="translate(-0.001 0)" fill="#304773"/>
  <path id="Path_1048" data-name="Path 1048" d="M180.725,356.305c2.829,2.423,5.419,2.284,7.739-.728.138,3.278.608,6.588.3,9.824-.224,2.371-1.984,3.894-4.736,3.619-2.693-.27-4.035-1.776-3.947-4.4.093-2.777.417-5.546.64-8.319" transform="translate(0 0)" fill="#304773"/>
  <path id="Path_1049" data-name="Path 1049" d="M99.268,227.947l-19.56-21.084c-2.178-4.826-4.922-9.485-6.4-14.518-2.115-7.2-3.305-14.67-4.89-22.025q.069-14.3.138-28.6c6.764-.726,10.268-4.639,10.3-11.8.06-14.249.359-28.51-.089-42.745-.354-11.277,8.329-18.53,18.223-18.21,7.474.242,14.963-.011,22.446-.044q32.346.08,64.691.156,11.967.027,23.935.016,1.626,2.98,3.25,5.961c-28.93-.012-57.861-.071-86.791-.014A29.9,29.9,0,0,0,95.45,98c-2.88,12.808-1.163,25.837-1.207,38.772-.026,7.6.215,15.2.446,22.8.236,7.788-.457,15.793,1.107,23.317,5.813,27.953,22.026,47.679,48.578,58.611a15.332,15.332,0,0,1,2.865,2.036c-3.174-.1-6.41.16-9.508-.379-6.137-1.068-12.2-2.576-18.29-3.9L99.268,227.947" transform="translate(0.001 0)" fill="#f47f49"/>
  <path id="Path_1050" data-name="Path 1050" d="M211.31,75.045q-1.625-2.98-3.251-5.961L223.431,67.6v6.191c0,10.561-.017,21.121.021,31.681a35.608,35.608,0,0,0,.451,3.992.536.536,0,0,1,.316.338q.01,7.32.021,14.642-.181.452-.362.9,0,3.277,0,6.556l.276.858a.711.711,0,0,0-.192.63q-.272,4.058-.545,8.117c-6.162-.555-9.7-4.344-9.731-10.614-.07-14.74.132-29.483-.138-44.218-.071-3.889-1.457-7.754-2.239-11.63" transform="translate(0 0)" fill="#1e2122"/>
  <path id="Path_1051" data-name="Path 1051" d="M59.547,153.015c-5.664-2.529-8.407-7.249-8.95-13.1a93.18,93.18,0,0,1-.037-14.2c.523-8.6,7.664-14.869,17.751-15.925q0,6.932,0,13.861c-5.57.7-7.358,3.031-7.228,9.439-5.863,5.2-6.984,12.534-1.673,18.677.225.26.1.826.135,1.249" transform="translate(0 0)" fill="#f5814a"/>
  <path id="Path_1052" data-name="Path 1052" d="M59.547,153.015c-.037-.423.09-.989-.135-1.249-5.311-6.143-4.19-13.476,1.673-18.677l7.236-2.027q.117,5.326.234,10.653-.069,14.3-.138,28.6c-1.555.66-3.285,2.05-4.607,1.733-.959-.23-1.8-2.677-1.958-4.211-.459-4.541-.551-9.12-.787-13.685l-1.552-1.163Z" transform="translate(0.001 0)" fill="#fcf8f6"/>
  <path id="Path_1053" data-name="Path 1053" d="M68.321,131.062l-7.235,2.026c-.131-6.407,1.657-8.742,7.227-9.438q0,3.7.008,7.412" transform="translate(0.001 0)" fill="#e45525"/>
  <path id="Path_1054" data-name="Path 1054" d="M59.513,152.995l1.552,1.163-1.552-1.163" transform="translate(0 0)" fill="#f5814a"/>
  <path id="Path_1055" data-name="Path 1055" d="M211.31,75.045c.782,3.876,2.168,7.741,2.239,11.629.27,14.736.068,29.479.138,44.219.029,6.27,3.569,10.058,9.731,10.614q.273-4.061.546-8.119c.088,2.106.276,4.216.248,6.322-.142,10.7-.341,21.4-.52,32.094a76.6,76.6,0,0,1-8.358,29.9,25.455,25.455,0,0,0-1.146,3.113c-3.973,5.027-7.831,10.151-11.962,15.044-2.219,2.628-4.908,4.858-7.384,7.267L174.1,238.669l-1.743,1.1c-1.082.244-2.166.48-3.245.734-7.2,1.7-14.331,3.855-21.876,3.037a15.457,15.457,0,0,0-2.866-2.034c-26.551-10.932-42.764-30.658-48.577-58.611-1.565-7.523-.871-15.529-1.108-23.316-.23-7.6-.472-15.2-.446-22.8C94.287,123.84,92.569,110.811,95.45,98a29.9,29.9,0,0,1,29.069-22.972c28.93-.056,57.861,0,86.791.014M128.7,183.555l-.635-3.722c-1.361,0-2.58-.018-3.8,0-4.284.077-5.469,1.405-4.323,5.469a82.387,82.387,0,0,0,3.218,8.17c7.021,12.541,23.045,17.375,35.269,10.64,8.151-3.632,12.71-10.19,14.759-18.616,1.052-4.325-.182-5.623-4.729-5.653-1.619-.011-3.239.081-4.858.126H129.417c-.283,1.425-.5,2.5-.712,3.582M165.853,120.7v9.916q.026,4.734.05,9.466c-.025.748-.08,1.5-.069,2.244.059,4.165,2.435,6.8,6.21,6.906,3.306.093,6.356-3.089,6.515-6.845.042-.995-.037-1.995-.061-2.993.023-6.317.116-12.635.042-18.951-.049-4.159-2.941-7.129-6.566-7.037-3.711.093-6.076,2.91-6.121,7.294m-39.822,18.527c.02-6.225.12-12.451.032-18.674-.06-4.25-2.871-7.174-6.551-7.145-3.76.03-6.115,2.842-6.105,7.292q.027,4.986.054,9.974-.008,4.761-.017,9.522c-.01.74-.044,1.48-.027,2.22.093,4.207,1.933,6.38,5.736,6.795,2.957.322,5.782-1.791,6.6-5.237a26.275,26.275,0,0,0,.277-4.747m9.844,15.21c-.065,6.469,1.265,10.251,4.811,12.908,3.693,2.767,7.739,2.912,11.471.259a12.083,12.083,0,0,0,5.169-12.458c-1.486-7.8-3.756-15.456-5.7-23.172-.682-2.709-2.5-4.189-5.182-3.648-1.614.326-4.021,1.344-4.376,2.552-2.483,8.445-4.523,17.02-6.195,23.559m-16.826-57.02c-3.354,0-6.712-.118-10.059.032a6.356,6.356,0,0,0-.215,12.687q9.864.315,19.743,0a6.177,6.177,0,0,0,5.908-6.455,6.069,6.069,0,0,0-6.064-6.236c-3.1-.15-6.208-.031-9.313-.032m53.494-.006c-3.228,0-6.461-.1-9.684.027-3.728.153-6.087,2.581-6.184,6.093a6.112,6.112,0,0,0,6.065,6.637q9.678.252,19.368-.008a6.367,6.367,0,0,0-.253-12.73c-3.1-.121-6.208-.024-9.312-.019" transform="translate(-0.001 0)" fill="#fdad6d"/>
  <path id="Path_1056" data-name="Path 1056" d="M224.24,124.444q-.011-7.321-.02-14.642c11.852,1.442,17.973,8.233,17.9,20.116a64,64,0,0,1-.849,12.593c-.691,3.319-1.9,6.917-5.818,8.26,1.759-6.624.768-12.36-5.3-16.458,2.106-5.338-.3-9.353-5.919-9.869" transform="translate(0 0)" fill="#f5814a"/>
  <path id="Path_1057" data-name="Path 1057" d="M230.158,134.313c6.063,4.1,7.054,9.834,5.3,16.458l.043-.03-.723.712c-3.756,2.915-4.272,6.895-3.858,11.283a23.789,23.789,0,0,1-.063,6.685c-.343,1.757-1.568,3.341-2.4,5l-4.759-2.619c.179-10.7.378-21.4.52-32.094.028-2.107-.159-4.216-.248-6.322a.706.706,0,0,1,.192-.629l6,1.554" transform="translate(0.001 0)" fill="#fcf8f6"/>
  <path id="Path_1058" data-name="Path 1058" d="M234.774,151.453l.723-.712-.723.712" transform="translate(0 0)" fill="#f5814a"/>
  <path id="Path_1059" data-name="Path 1059" d="M174.1,238.669l20.739-11.545c3.838,1.695,8.049,2.851,11.43,5.206,5.652,3.936,6.646,10.55,6.541,16.726a45.258,45.258,0,0,1-9.608,27.337c-9.47,12.261-22.234,19.349-37.052,22.783-23.032,5.337-44.531,1.679-63.407-12.914-13.5-10.434-20.671-24.3-19.252-41.9.683-8.457,6.724-14.821,15.774-16.416l20.173,11.31q.017,6.008.034,12.014c-.02,2.746-.077,5.492-.055,8.238a27.108,27.108,0,0,0,54.033,3.022,26.823,26.823,0,0,0,.6-3.911c.068-6.65.042-13.3.048-19.952" transform="translate(0 0)" fill="#304773"/>
  <path id="Path_1060" data-name="Path 1060" d="M119.476,251.271q-.018-6-.036-12.012c6.093,1.326,12.153,2.835,18.29,3.9,3.1.539,6.334.279,9.508.378,7.547.816,14.679-1.34,21.877-3.038,1.08-.255,2.164-.49,3.246-.733l.231.246c-1.135,1.421-2.037,3.151-3.442,4.212a46.594,46.594,0,0,1-29.863,9.876c-6.625-.184-13.209-1.838-19.811-2.832" transform="translate(0 0)" fill="#e85322"/>
  <path id="Path_1061" data-name="Path 1061" d="M230.158,134.313l-6-1.554-.276-.857q0-3.277,0-6.556.182-.45.362-.9c5.618.516,8.025,4.53,5.919,9.868" transform="translate(0.001 0)" fill="#e85322"/>
  <path id="Path_1062" data-name="Path 1062" d="M223.878,125.346q0,3.277,0,6.556,0-3.279,0-6.556" transform="translate(0 0)" fill="#2a2f33"/>
  <path id="Path_1063" data-name="Path 1063" d="M135.875,154.437c1.672-6.539,3.712-15.114,6.2-23.559.355-1.208,2.762-2.226,4.376-2.552,2.682-.541,4.5.939,5.182,3.648,1.942,7.716,4.212,15.369,5.7,23.172a12.083,12.083,0,0,1-5.169,12.458c-3.732,2.653-7.778,2.508-11.471-.259-3.546-2.657-4.876-6.439-4.811-12.908" transform="translate(0.001 0)" fill="#f68049"/>
  <path id="Path_1064" data-name="Path 1064" d="M158.437,204.116c-12.224,6.735-28.248,1.9-35.269-10.64,2.8-1.725,5.615-3.43,8.374-5.221.19-.123-.036-.889-.068-1.356l29.128.059-16.066.93c7.815,2.991,12.561,8.2,13.9,16.228" transform="translate(0.001 0)" fill="#e62d34"/>
  <path id="Path_1065" data-name="Path 1065" d="M119.049,97.417c3.105,0,6.216-.118,9.313.031a6.07,6.07,0,0,1,6.065,6.237,6.179,6.179,0,0,1-5.908,6.455q-9.864.3-19.743-.005a6.356,6.356,0,0,1,.214-12.687c3.347-.149,6.706-.031,10.059-.031" transform="translate(0 0)" fill="#2c3033"/>
  <path id="Path_1066" data-name="Path 1066" d="M172.543,97.408c3.1,0,6.212-.1,9.312.022a6.367,6.367,0,0,1,.253,12.73q-9.678.259-19.368.008a6.113,6.113,0,0,1-6.065-6.637,6.009,6.009,0,0,1,6.184-6.093c3.223-.132,6.456-.027,9.684-.03" transform="translate(0 0)" fill="#2c3033"/>
  <path id="Path_1067" data-name="Path 1067" d="M113.407,120.7c-.01-4.449,2.345-7.262,6.1-7.292,3.68-.029,6.491,2.9,6.551,7.145.088,6.223-.012,12.45-.032,18.675-3.681,6.147-8.117,6.488-12.586.968q.007-4.761.017-9.521c3.352,1.358,4.327.805,4.447-2.592.057-1.622.063-3.251,0-4.872-.138-3.418-1.08-3.927-4.5-2.511" transform="translate(-0.001 0)" fill="#2f3134"/>
  <path id="Path_1068" data-name="Path 1068" d="M165.9,140.082q-.026-4.732-.05-9.466c3.532,1.486,4.415.956,4.5-2.743q.054-2.216,0-4.433c-.088-3.714-.935-4.221-4.5-2.741.045-4.383,2.409-7.2,6.121-7.294,3.625-.091,6.517,2.879,6.566,7.037.074,6.317-.02,12.635-.042,18.952-3.88,6.039-8.262,6.278-12.595.688" transform="translate(0.001 0)" fill="#2f3134"/>
  <path id="Path_1069" data-name="Path 1069" d="M158.437,204.116c-1.34-8.028-6.086-13.237-13.9-16.228l16.067-.93c3.79-1.124,2.946-4.25,3.006-6.985,1.619-.045,3.239-.138,4.858-.127,4.547.031,5.781,1.329,4.73,5.654-2.049,8.426-6.609,14.983-14.76,18.616" transform="translate(0 0)" fill="#ae0f1d"/>
  <path id="Path_1070" data-name="Path 1070" d="M163.608,179.973c-.059,2.735.785,5.861-3.006,6.985l-29.13-.059-2.767-3.344c.214-1.078.428-2.157.712-3.582Z" transform="translate(0.001 0)" fill="#fefefe"/>
  <path id="Path_1071" data-name="Path 1071" d="M128.7,183.555l2.767,3.344c.034.467.26,1.233.07,1.356-2.759,1.791-5.573,3.5-8.374,5.221a82.387,82.387,0,0,1-3.218-8.17c-1.147-4.064.039-5.392,4.322-5.47,1.218-.022,2.437,0,3.8,0l.635,3.722" transform="translate(0 0)" fill="#b0111e"/>
  <path id="Path_1072" data-name="Path 1072" d="M113.444,140.2c4.469,5.52,8.906,5.179,12.587-.968a26.275,26.275,0,0,1-.278,4.747c-.819,3.445-3.644,5.558-6.6,5.236-3.8-.415-5.642-2.588-5.736-6.8-.016-.739.017-1.48.028-2.22" transform="translate(-0.001 0)" fill="#f07f49"/>
  <path id="Path_1073" data-name="Path 1073" d="M165.9,140.082c4.333,5.59,8.715,5.351,12.595-.688.024,1,.1,2,.061,2.992-.16,3.757-3.209,6.939-6.515,6.846-3.775-.106-6.152-2.741-6.211-6.906-.01-.748.045-1.5.07-2.244" transform="translate(-0.001 0)" fill="#f07f49"/>
  <path id="Path_1074" data-name="Path 1074" d="M113.407,120.7c3.42-1.416,4.362-.907,4.5,2.511.065,1.621.059,3.25,0,4.872-.12,3.4-1.1,3.95-4.447,2.592q-.029-4.988-.055-9.975" transform="translate(-0.001 0)" fill="#f4f4f4"/>
  <path id="Path_1075" data-name="Path 1075" d="M165.853,120.7c3.569-1.48,4.416-.973,4.505,2.74q.053,2.216,0,4.434c-.089,3.7-.973,4.229-4.505,2.743V120.7" transform="translate(0.001 0)" fill="#fefefe"/>
  <path id="Path_1076" data-name="Path 1076" d="M174.1,238.669c-.006,6.651.02,13.3-.048,19.952a26.809,26.809,0,0,1-.6,3.911c-.029-6.1-.011-12.195-.12-18.291a26.7,26.7,0,0,0-.741-4.227l-.23-.245q.868-.552,1.741-1.1" transform="translate(0.002 0)" fill="#e85322"/>
  <path id="Path_1077" data-name="Path 1077" d="M172.592,240.014a26.711,26.711,0,0,1,.741,4.226c.109,6.1.091,12.194.12,18.291a27.108,27.108,0,0,1-54.033-3.021c-.022-2.746.035-5.493.055-8.239,6.6.994,13.188,2.647,19.813,2.832a46.607,46.607,0,0,0,29.863-9.877c1.405-1.061,2.307-2.791,3.441-4.212" transform="translate(0 0)" fill="#f57f48"/>
  <path id="Path_1078" data-name="Path 1078" d="M106.07,323.27v.01c-.01,4.73,0,9.47,0,14.2a63.263,63.263,0,0,0-19.22,22.56A87.717,87.717,0,0,0,98.97,429.6H0V311.13c0-1.42.02-2.84.07-4.25.27-8.22,1.46-16.29,5.21-23.95,8.6-17.59,22.74-27.8,41.72-31.64,2.43-.49,4.85-1.03,7.28-1.55,0,4.68-.14,9.37.04,14.04.48,12.95,6.22,23.12,16.84,30.36,10.49,7.15,22.56,9.99,34.9,11.88v.86q0,8.19.01,16.39" transform="translate(0 0)" fill="#304773"/>
  <path id="Path_1079" data-name="Path 1079" d="M.07,306.88c-.05,1.41-.07,2.83-.07,4.25v-4.25Z" transform="translate(0 0)" fill="#e82a32"/>
</svg>
