<svg id="Group_261" data-name="Group 261" xmlns="http://www.w3.org/2000/svg" xmlns:xlink="http://www.w3.org/1999/xlink" width="27.016" height="27.023" viewBox="0 0 27.016 27.023">
  <defs>
    <clipPath id="clip-path">
      <rect id="Rectangle_864" data-name="Rectangle 864" width="27.016" height="27.023" fill="#898989"/>
    </clipPath>
  </defs>
  <g id="Group_260" data-name="Group 260" clip-path="url(#clip-path)">
    <path id="Path_1560" data-name="Path 1560" d="M144.037,39.856a2.018,2.018,0,0,0,2.094,1.523,1.979,1.979,0,0,0,1.768-1.856,5.925,5.925,0,0,0,.942-.336,1.783,1.783,0,0,0,.963-1.6c.019-1.326.017-2.653,0-3.98a1.9,1.9,0,0,0-1.519-1.822c-.126-.027-.254-.046-.378-.068-.213-1.162-.822-1.814-1.776-1.9a2.028,2.028,0,0,0-2.111,1.568v-.325q0-2.97,0-5.939a.978.978,0,0,1,1.092-1.1q1.718,0,3.436,0h.282a2.007,2.007,0,0,0,.74,1.5,1.9,1.9,0,0,0,1.257.424,1.985,1.985,0,0,0,1.9-1.928h1.165c.854,0,1.708,0,2.562,0a.975.975,0,0,1,1.073,1.06q0,10.522,0,21.044a.967.967,0,0,1-1.047,1.056q-5.712,0-11.424,0a.957.957,0,0,1-1.034-.977c-.006-2.07,0-4.14,0-6.211,0-.037.008-.074.014-.131" transform="translate(-132.445 -22.084)" fill="#898989"/>
    <path id="Path_1561" data-name="Path 1561" d="M12.543,115.8h-1.93c0,.313,0,.612,0,.911a.965.965,0,1,1-1.928,0c0-.3,0-.6,0-.911H6.754c0,.287,0,.574,0,.861a.968.968,0,1,1-1.929.009c0-.281,0-.561,0-.863H2.894c0,.3,0,.6,0,.894a.966.966,0,1,1-1.928-.01c0-.291,0-.581,0-.867C.19,115.6,0,115.345,0,114.552q0-1.689,0-3.378c0-.742.222-1.025.965-1.211,0-.3,0-.6,0-.9a.965.965,0,1,1,1.928,0c0,.3,0,.6,0,.912h1.93c0-.285,0-.572,0-.859a.968.968,0,1,1,1.929-.014c0,.281,0,.562,0,.866h1.93c0-.294,0-.592,0-.89a.966.966,0,1,1,1.928,0c0,.29,0,.58,0,.89h1.93c0-.3,0-.6,0-.9a.965.965,0,1,1,1.928-.012c.005.3,0,.6,0,.933.322,0,.62,0,.918,0a.962.962,0,0,1,1.01,1q.008,1.9,0,3.8a.956.956,0,0,1-.994.987c-.3.005-.6,0-.934,0,0,.321,0,.619,0,.917a.966.966,0,1,1-1.928-.012c0-.29,0-.579,0-.89" transform="translate(0 -99.378)" fill="#898989"/>
    <path id="Path_1562" data-name="Path 1562" d="M120.984,7.94l-.965-.265V7.4q0-2.186,0-4.373A2.9,2.9,0,0,1,123.057,0q5.653,0,11.307,0a2.89,2.89,0,0,1,3.021,3.013q0,10.495,0,20.989a2.892,2.892,0,0,1-3.017,3.018q-5.668,0-11.337,0A2.9,2.9,0,0,1,120.019,24q0-2.186,0-4.373v-.277l.965-.266v.325q0,2.292,0,4.584a1.934,1.934,0,0,0,2.049,2.065q5.668,0,11.337,0a1.933,1.933,0,0,0,2.051-2.064q0-10.48,0-20.959A1.934,1.934,0,0,0,134.343.967H123.067a1.938,1.938,0,0,0-2.083,2.092q0,2.277,0,4.554Z" transform="translate(-110.37 0)" fill="#898989"/>
  </g>
</svg>
