<svg xmlns="http://www.w3.org/2000/svg" xmlns:xlink="http://www.w3.org/1999/xlink" width="47.907" height="39.51" viewBox="0 0 47.907 39.51">
  <defs>
    <clipPath id="clip-path">
      <rect id="Rectangle_830" data-name="Rectangle 830" width="47.907" height="39.51" transform="translate(0 0)" fill="#eb5050"/>
    </clipPath>
  </defs>
  <g id="Group_225" data-name="Group 225" transform="translate(0 0)">
    <g id="Group_225-2" data-name="Group 225" clip-path="url(#clip-path)">
      <path id="Path_1372" data-name="Path 1372" d="M45.7,21.132a37.259,37.259,0,0,1-7.02,8.56,78.542,78.542,0,0,1-11.33,8.73,5.745,5.745,0,0,1-6.6.09A72.315,72.315,0,0,1,7.372,27.8a28.729,28.729,0,0,1-6-8.48c-2.21-5.14-1.81-10.08,1.64-14.53a12.55,12.55,0,0,1,16.86-2.66,16.168,16.168,0,0,1,3.74,3.41c.11.14.23.27.34.41h.01c.65-.7,1.24-1.42,1.91-2.06A12.969,12.969,0,0,1,36.152.072a12.657,12.657,0,0,1,11.04,8.81,14.64,14.64,0,0,1-1.49,12.25" fill="#eb5050"/>
    </g>
  </g>
</svg>
