<svg xmlns="http://www.w3.org/2000/svg" xmlns:xlink="http://www.w3.org/1999/xlink" width="64.334" height="65.485" viewBox="0 0 64.334 65.485">
  <defs>
    <clipPath id="clip-path">
      <rect id="Rectangle_776" data-name="Rectangle 776" width="49.224" height="46.272" fill="#304773"/>
    </clipPath>
  </defs>
  <g id="Group_203" data-name="Group 203" transform="translate(40.47) rotate(61)">
    <g id="Group_202" data-name="Group 202" clip-path="url(#clip-path)">
      <path id="Path_1371" data-name="Path 1371" d="M49.224,39.086c-.61-1.112-1.425-1.222-2.332-.314q-1.53,1.53-3.059,3.06c-.11.11-.227.212-.405.378-.018-.385-.038-.685-.046-.985A34.915,34.915,0,0,0,41.144,29.3a20.271,20.271,0,0,0-9.85-11.273,31.382,31.382,0,0,0-3.81-1.426.92.92,0,0,1-.66-.581,27.346,27.346,0,0,0-7.894-11.3A19.511,19.511,0,0,0,3.878.123,28.193,28.193,0,0,0,.9.62a1.155,1.155,0,0,0-.868,1.4,1.2,1.2,0,0,0,1.4.947c.442-.07.88-.169,1.322-.241,7.289-1.188,13.1,1.384,17.691,7a26.288,26.288,0,0,1,3.64,6.027c.032.071.055.146.1.28-.186,0-.334,0-.483,0a16.23,16.23,0,0,0-10.235,2.8,10.7,10.7,0,0,0-4.645,7.238,9.421,9.421,0,0,0,2.527,8.013,9.847,9.847,0,0,0,7.779,3.459,9.729,9.729,0,0,0,6.885-3.27,10.448,10.448,0,0,0,2.813-7.063,24.929,24.929,0,0,0-.782-7.427c-.037-.15-.065-.3-.1-.452l.093-.12c.947.442,1.926.827,2.835,1.337a17.994,17.994,0,0,1,7.853,9.22,30.8,30.8,0,0,1,2.133,9.907c.051.811.079,1.623.123,2.555-.2-.178-.32-.27-.426-.375Q38.9,40.213,37.25,38.569a1.2,1.2,0,0,0-1.323-.32,1.037,1.037,0,0,0-.77,1,1.586,1.586,0,0,0,.348.994q2.732,2.809,5.532,5.551a1.588,1.588,0,0,0,2.261.01c1.875-1.842,3.726-3.708,5.577-5.574a2.877,2.877,0,0,0,.349-.566ZM23.164,18.469c.4.03,1.045.058,1.679.138a.6.6,0,0,1,.419.325,23.594,23.594,0,0,1,1.152,7.846,8.236,8.236,0,0,1-2.665,6.3c-2.3,2-4.856,2.674-7.687,1.432a7.538,7.538,0,0,1-4.9-6.88c-.124-2.84,1.325-4.992,3.5-6.652a13.693,13.693,0,0,1,8.494-2.511" transform="translate(0 0)" fill="#304773"/>
    </g>
  </g>
</svg>
