<svg id="Group_259" data-name="Group 259" xmlns="http://www.w3.org/2000/svg" xmlns:xlink="http://www.w3.org/1999/xlink" width="21.903" height="21.907" viewBox="0 0 21.903 21.907">
  <defs>
    <clipPath id="clip-path">
      <rect id="Rectangle_863" data-name="Rectangle 863" width="21.903" height="21.907" fill="#898989"/>
    </clipPath>
  </defs>
  <g id="Group_258" data-name="Group 258" clip-path="url(#clip-path)">
    <path id="Path_1559" data-name="Path 1559" d="M18.054,21.907H3.854a.926.926,0,0,0-.14-.04,4.268,4.268,0,0,1-3.706-4.18q-.017-6.726,0-13.452A4.256,4.256,0,0,1,4.235.008q6.714-.018,13.428,0A4.25,4.25,0,0,1,21.739,3.13c.067.238.11.482.164.724v14.2a.669.669,0,0,0-.038.118,4.269,4.269,0,0,1-3.254,3.612c-.185.044-.371.08-.557.12M14.56,6.146l.022.051-.949.946c-.655.655-1.313,1.307-1.964,1.966a.8.8,0,1,0,1.155,1.113q1.365-1.371,2.734-2.739a1.06,1.06,0,0,0,.126-.2l.083.052v.228c0,.634,0,1.269,0,1.9a.8.8,0,1,0,1.6,0q0-2.031,0-4.063a.8.8,0,0,0-.853-.859c-.613,0-1.226,0-1.839,0-.763,0-1.525,0-2.288,0a.8.8,0,1,0-.051,1.6c.135.01.271.007.406.007H14.56M7.283,15.771c.094-.1.146-.156.2-.21L9.4,13.641c.287-.287.581-.568.859-.864a.8.8,0,0,0-.334-1.326.811.811,0,0,0-.854.247c-.909.915-1.823,1.824-2.731,2.74a.751.751,0,0,0-.1.206l-.1-.076c0-.076,0-.153,0-.229,0-.663.01-1.326-.007-1.988a.8.8,0,0,0-1.592,0q-.012,2.127,0,4.254a.766.766,0,0,0,.748.763q2.148.016,4.3,0a.8.8,0,0,0-.021-1.593c-.662-.012-1.325,0-1.987,0H7.283" transform="translate(0 0)" fill="#898989"/>
  </g>
</svg>
