<svg id="Group_71" data-name="Group 71" xmlns="http://www.w3.org/2000/svg" xmlns:xlink="http://www.w3.org/1999/xlink" width="20.069" height="20" viewBox="0 0 20.069 20">
  <defs>
    <clipPath id="clip-path">
      <rect id="Rectangle_104" data-name="Rectangle 104" width="20.069" height="20" fill="#73a9f3"/>
    </clipPath>
  </defs>
  <g id="Group_70" data-name="Group 70" clip-path="url(#clip-path)">
    <path id="Path_913" data-name="Path 913" d="M0,7.884c.051-.327.091-.656.156-.98A8.4,8.4,0,0,1,3.808,1.421,8.115,8.115,0,0,1,7.2.1a8.517,8.517,0,1,1-6.8,11A16.319,16.319,0,0,1,.037,9.288c-.01-.051-.024-.1-.037-.15V7.884m8.524-5.5a6.139,6.139,0,1,0,6.132,6.16,6.123,6.123,0,0,0-6.132-6.16" transform="translate(0 -0.001)" fill="#73a9f3"/>
    <path id="Path_914" data-name="Path 914" d="M280.788,278.8c1.117,1.1,2.244,2.2,3.359,3.3a1.227,1.227,0,0,1-1.727,1.745q-1.676-1.633-3.34-3.279a.141.141,0,0,1-.027-.033l1.735-1.738" transform="translate(-264.445 -264.208)" fill="#73a9f3"/>
  </g>
</svg>
