<svg id="Group_2" data-name="Group 2" xmlns="http://www.w3.org/2000/svg" xmlns:xlink="http://www.w3.org/1999/xlink" width="25.659" height="25.577" viewBox="0 0 25.659 25.577">
  <defs>
    <clipPath id="clip-path">
      <rect id="Rectangle_3" data-name="Rectangle 3" width="25.659" height="25.577" fill="none"/>
    </clipPath>
  </defs>
  <g id="Group_1" data-name="Group 1" clip-path="url(#clip-path)">
    <path id="Path_1" data-name="Path 1" d="M0,11.034A11.5,11.5,0,0,1,.161,9.062Q.177,8.969.2,8.876A10.7,10.7,0,0,1,5.373,1.512,10.154,10.154,0,0,1,11.429.027a10.425,10.425,0,0,1,9.289,6.257A10.412,10.412,0,0,1,19.3,17.776a10.268,10.268,0,0,1-6.89,3.89A10.855,10.855,0,0,1,.336,13.553C.194,12.981.14,12.388.044,11.8A3.956,3.956,0,0,1,0,11.272Zm10.9-8a7.859,7.859,0,1,0,7.844,7.87A7.859,7.859,0,0,0,10.9,3.034" transform="translate(0 -0.001)"/>
    <path id="Path_2" data-name="Path 2" d="M287.173,285.159c-.017.046-.037.092-.051.139a1.567,1.567,0,0,1-2.651.686q-1.516-1.475-3.015-2.966c-.425-.422-.829-.865-1.216-1.27l2.171-2.176c.033.03.1.088.163.15,1.3,1.28,2.6,2.564,3.914,3.836a2.5,2.5,0,0,1,.685,1.048Z" transform="translate(-261.514 -260.891)"/>
  </g>
</svg>
