<svg xmlns="http://www.w3.org/2000/svg" xmlns:xlink="http://www.w3.org/1999/xlink" width="53.126" height="63.213" viewBox="0 0 53.126 63.213">
  <defs>
    <linearGradient id="linear-gradient" x1="0.347" y1="0.015" x2="0.674" y2="1.022" gradientUnits="objectBoundingBox">
      <stop offset="0" stop-color="#d6dbf7"/>
      <stop offset="0.97" stop-color="#c3cbf6"/>
      <stop offset="1" stop-color="#1278c9"/>
    </linearGradient>
    <linearGradient id="linear-gradient-2" x1="0.236" y1="0.001" x2="0.728" y2="0.982" gradientUnits="objectBoundingBox">
      <stop offset="0" stop-color="#c0c8f6"/>
      <stop offset="1" stop-color="#aeb9f8"/>
    </linearGradient>
    <linearGradient id="linear-gradient-3" x1="0.104" y1="0.849" x2="0.971" y2="0.245" gradientUnits="objectBoundingBox">
      <stop offset="0" stop-color="#2395f0"/>
      <stop offset="1" stop-color="#1278c9"/>
    </linearGradient>
    <linearGradient id="linear-gradient-4" x1="0.056" y1="0.009" x2="0.937" y2="0.984" gradientUnits="objectBoundingBox">
      <stop offset="0" stop-color="#fa9e4f"/>
      <stop offset="1" stop-color="#e9842c"/>
    </linearGradient>
    <linearGradient id="linear-gradient-5" y1="0.5" x2="1" y2="0.5" gradientUnits="objectBoundingBox">
      <stop offset="0" stop-color="#e9842c"/>
      <stop offset="1" stop-color="#fa9e4f"/>
    </linearGradient>
  </defs>
  <g id="Layer_1" data-name="Layer 1" transform="translate(0.004 0.005)">
    <g id="Group_91" data-name="Group 91" transform="translate(-0.004 -0.005)">
      <path id="Path_928" data-name="Path 928" d="M149.49,111.38a1.386,1.386,0,0,1,.207-.05A.992.992,0,0,0,149.49,111.38Zm6.521,5.875.023-.014a.2.2,0,0,0,.023-.018l-.047.032Z" transform="translate(-122.597 -91.302)" fill="#bcc5f6"/>
      <path id="Path_929" data-name="Path 929" d="M116.586,59.437a6.248,6.248,0,0,0-3.681-4.965c-1.11-.545-1.767-1.2-1.5-2.491a9.064,9.064,0,0,1-4.289,1.894c-.4.056-.808.112-1.212.169a2.68,2.68,0,0,1-3.218.588,2.6,2.6,0,0,1,1.214-4.907,2.135,2.135,0,0,1,2.033,1.027l1.319-.174a5.377,5.377,0,0,0,2.981-2.166,7.327,7.327,0,0,0-6.616-3.484,15.887,15.887,0,0,0-3.463.894c-.329.212-.657.426-.984.639l-2.3-1.311c-.146-.052-.293-.1-.437-.16a6.462,6.462,0,0,0-5.5.155,8.148,8.148,0,0,0-2.657,2.4c-.045.054-.092.106-.14.158h0a3.926,3.926,0,0,1-.241.658q-3.03,5.238-6.073,10.47a3.089,3.089,0,0,0-.167.43L78.66,64.4q-.6,1.031-1.2,2.065l5.81,3.346,7.271,4.184q3.589,2.08,7.176,4.164c.191.112.369.246.552.371l5.377,3.1c.4.232.792.466,1.189.7a3.223,3.223,0,0,0,.335-.4q1.314-2.291,2.619-4.589.882-1.549,1.765-3.094.869-1.484,1.736-2.968,1.419-2.485,2.837-4.972a45.442,45.442,0,0,0,2.241-4.236A5.379,5.379,0,0,0,116.586,59.437ZM90.418,56.53a.993.993,0,0,1,.207-.05A1.386,1.386,0,0,0,90.418,56.53Zm6.544,5.861-.023.014.047-.032A.2.2,0,0,1,96.962,62.391Z" transform="translate(-63.525 -36.451)" fill="url(#linear-gradient)"/>
      <path id="Path_930" data-name="Path 930" d="M62.127,198.337l-1.371,2.312c-.716,1.311-1.419,2.628-2.15,3.931-.381.68-.81,1.333-1.216,2-1.092,1.907-1.846,4.067-3.871,5.283a6.072,6.072,0,0,1-6.44.155c-5.515-3.114-10.99-6.3-16.458-9.5a11.94,11.94,0,0,1-1.7-1.468,5.287,5.287,0,0,1-1.567-3.515,6.281,6.281,0,0,1,1.036-4.148,3.5,3.5,0,0,0,.288-.8l.259-.061c1.07-1.883,2.135-3.771,3.216-5.649.849-1.473,1.72-2.932,2.581-4.4l1.727.937,7.054,4.085,6.321,3.7q2.134,1.228,4.269,2.457c.288.167.565.351.845.525Z" transform="translate(-22.408 -149.653)" fill="url(#linear-gradient-2)"/>
      <path id="Path_931" data-name="Path 931" d="M24.6,62.51a3.984,3.984,0,0,1-.241.658q-3.03,5.238-6.073,10.47a3.088,3.088,0,0,0-.167.43l-2.983,5.141q-.6,1.031-1.2,2.065-.653,1.128-1.308,2.256c-.1.187-.2.374-.3.561-.862,1.466-1.732,2.925-2.581,4.4C8.662,90.368,7.6,92.255,6.527,94.138l-.259.061-.826-.777q-.4-.351-.8-.7Q4.18,92.31,3.71,91.9c-.266-.232-.531-.466-.8-.7l-.556-.491q-.472-.47-.944-.943L.447,88.121a5.594,5.594,0,0,1,1.236-6.192c1.68-1.572,3.5-2.992,5.262-4.477l3.5-2.963q1.554-1.317,3.1-2.635,1.074-.909,2.144-1.819,1.139-.958,2.279-1.919,1.489-1.257,2.977-2.518,1.271-1.074,2.54-2.15c.367-.311.736-.624,1.1-.937Z" transform="translate(0.004 -51.264)" fill="url(#linear-gradient-3)"/>
      <path id="Path_932" data-name="Path 932" d="M97.512,182.686c-.126.225-.254.448-.38.673q-.208.416-.417.831c-.264.435-.531.869-.8,1.3q-3.583-2.078-7.172-4.155c-.281-.174-.558-.358-.845-.525q-2.132-1.233-4.269-2.457-3.16-1.848-6.323-3.695c.1.023.2.041.306.059-.1-.018-.205-.038-.3-.061l-7.054-4.085-1.727-.937c.1-.187.2-.374.3-.561q.653-1.128,1.308-2.256l5.81,3.346,7.271,4.184q3.589,2.08,7.176,4.164c.191.112.369.246.552.371l5.377,3.1c.4.232.792.466,1.189.7Z" transform="translate(-56.201 -136.81)" fill="url(#linear-gradient-4)"/>
      <path id="Path_933" data-name="Path 933" d="M189.992,4.952a5.776,5.776,0,0,0-1.383,4.413c-.329.212-.657.426-.984.639l-2.3-1.32a10.423,10.423,0,0,1,.475-2.785,8.055,8.055,0,0,1,2.743-3.833l.27-.21a8.3,8.3,0,0,1,2.04-1.162l.3-.119a8.287,8.287,0,0,1,2.465-.558h.018a8.209,8.209,0,0,1,1.981.1l.432.074a7.659,7.659,0,0,1,1.52.412,8.2,8.2,0,0,1,4.988,5.431,8.559,8.559,0,0,1-2.321,9.11c-.126.126-.248.255-.374.383a9.064,9.064,0,0,1-4.289,1.894c-.4.056-.808.112-1.212.169-.318-.038-.635-.074-.953-.11a12.539,12.539,0,0,1-1.328-.187,1.6,1.6,0,1,1,.768-3.1c.21.047.423.085.635.122l.642.018c.527-.068,1.052-.14,1.581-.209a5.377,5.377,0,0,0,2.981-2.166,5.117,5.117,0,0,0,.986-4.179,5.388,5.388,0,0,0-2.112-3.5,5.046,5.046,0,0,0-2.009-.908l-.255-.056a5.2,5.2,0,0,0-1.887-.059.09.09,0,0,0-.022,0,5.244,5.244,0,0,0-2.169.853" transform="translate(-151.982 0.005)" fill="url(#linear-gradient-5)"/>
      <path id="Path_934" data-name="Path 934" d="M136.849,61.64c-.05.056-.1.113-.149.169C136.75,61.753,136.8,61.7,136.849,61.64Z" transform="translate(-112.108 -50.551)" fill="#1278c9"/>
      <path id="Path_935" data-name="Path 935" d="M214.533,78.1a2.678,2.678,0,0,1-3.218.588,2.6,2.6,0,0,1,1.214-4.907,2.141,2.141,0,0,1,2.033,1.027c-.234.018-.468.036-.7.056-.281-.054-.563-.1-.842-.162a1.6,1.6,0,1,0-.766,3.1,12.536,12.536,0,0,0,1.328.187l.953.108Z" transform="translate(-172.155 -60.506)" fill="#c0c8f6"/>
      <path id="Path_936" data-name="Path 936" d="M149.7,111.33a1.386,1.386,0,0,0-.207.05A.992.992,0,0,1,149.7,111.33Z" transform="translate(-122.597 -91.302)" fill="#bcc5f6"/>
      <path id="Path_937" data-name="Path 937" d="M185.787,144.09l-.023.018-.023.014Z" transform="translate(-152.326 -118.169)" fill="#bcc5f6"/>
      <path id="Path_938" data-name="Path 938" d="M187.37,142.518l.011-.018h0A.074.074,0,0,1,187.37,142.518Z" transform="translate(-153.663 -116.865)" fill="#bcc5f6"/>
      <rect id="Rectangle_170" data-name="Rectangle 170" width="14.9" height="3.407" rx="1.704" transform="translate(23.754 25.332) rotate(30)" fill="#1683d9"/>
      <rect id="Rectangle_171" data-name="Rectangle 171" width="14.9" height="10.387" rx="5.193" transform="translate(16.977 40.463) rotate(30)" fill="#1683d9"/>
      <rect id="Rectangle_172" data-name="Rectangle 172" width="9.417" height="3.407" rx="1.704" transform="translate(29.058 18.341) rotate(30)" fill="#1683d9"/>
    </g>
  </g>
</svg>
