<svg xmlns="http://www.w3.org/2000/svg" width="29.5" height="32.5" viewBox="0 0 29.5 32.5">
  <g id="Icon_feather-share-2" data-name="Icon feather-share-2" transform="translate(-3.25 -1.75)">
    <path id="Path_1169" data-name="Path 1169" d="M31.5,7.5A4.5,4.5,0,1,1,27,3,4.5,4.5,0,0,1,31.5,7.5Z" fill="none" stroke="#73a9f3" stroke-linecap="round" stroke-linejoin="round" stroke-width="2.5"/>
    <path id="Path_1170" data-name="Path 1170" d="M13.5,18A4.5,4.5,0,1,1,9,13.5,4.5,4.5,0,0,1,13.5,18Z" fill="none" stroke="#73a9f3" stroke-linecap="round" stroke-linejoin="round" stroke-width="2.5"/>
    <path id="Path_1171" data-name="Path 1171" d="M31.5,28.5A4.5,4.5,0,1,1,27,24,4.5,4.5,0,0,1,31.5,28.5Z" fill="none" stroke="#73a9f3" stroke-linecap="round" stroke-linejoin="round" stroke-width="2.5"/>
    <path id="Path_1172" data-name="Path 1172" d="M12.885,20.265l10.245,5.97" fill="none" stroke="#73a9f3" stroke-linecap="round" stroke-linejoin="round" stroke-width="2.5"/>
    <path id="Path_1173" data-name="Path 1173" d="M23.115,9.765l-10.23,5.97" fill="none" stroke="#73a9f3" stroke-linecap="round" stroke-linejoin="round" stroke-width="2.5"/>
  </g>
</svg>
