<svg id="Group_253" data-name="Group 253" xmlns="http://www.w3.org/2000/svg" xmlns:xlink="http://www.w3.org/1999/xlink" width="20.899" height="23.254" viewBox="0 0 20.899 23.254">
  <defs>
    <clipPath id="clip-path">
      <rect id="Rectangle_860" data-name="Rectangle 860" width="20.899" height="23.254" fill="#898989"/>
    </clipPath>
  </defs>
  <g id="Group_252" data-name="Group 252" clip-path="url(#clip-path)">
    <path id="Path_1554" data-name="Path 1554" d="M20.9,11.626q0,4.034,0,8.068a3.475,3.475,0,0,1-2.942,3.518,3.954,3.954,0,0,1-.678.04q-6.829,0-13.658,0A3.475,3.475,0,0,1,0,19.612Q0,11.585,0,3.558A3.47,3.47,0,0,1,2.943.04,3.966,3.966,0,0,1,3.62,0q6.829,0,13.658,0A3.473,3.473,0,0,1,20.9,3.64q0,3.993,0,7.986M10.462,16.86q-2.3,0-4.6,0a1.151,1.151,0,0,0-.956.43,1.1,1.1,0,0,0-.151,1.226,1.165,1.165,0,0,0,1.148.676q4.543,0,9.085,0a1.569,1.569,0,0,0,.48-.072,1.159,1.159,0,0,0-.386-2.253c-1.541-.006-3.083,0-4.624,0m0-6.206h0q2.285,0,4.57,0a1.158,1.158,0,1,0,.016-2.314q-4.6-.009-9.194,0a1.408,1.408,0,0,0-.575.127,1.153,1.153,0,0,0,.5,2.181c1.559.006,3.119,0,4.678,0M10.448,12.6c-1.559,0-3.119-.005-4.678,0a1.134,1.134,0,0,0-1.121,1.052,1.15,1.15,0,0,0,.842,1.214,2.174,2.174,0,0,0,.539.046q4.42,0,8.84,0c.109,0,.218,0,.326-.009a1.078,1.078,0,0,0,.843-.484,1.1,1.1,0,0,0,.088-1.185A1.087,1.087,0,0,0,15.1,12.6q-2.326,0-4.651,0M8.1,6.393c.761,0,1.522,0,2.283,0a1.164,1.164,0,1,0,.025-2.327q-2.283-.014-4.566,0a1.165,1.165,0,1,0,.03,2.327c.743,0,1.486,0,2.229,0" transform="translate(0 0)" fill="#898989"/>
  </g>
</svg>
