<svg id="Group_257" data-name="Group 257" xmlns="http://www.w3.org/2000/svg" xmlns:xlink="http://www.w3.org/1999/xlink" width="21.902" height="21.906" viewBox="0 0 21.902 21.906">
  <defs>
    <clipPath id="clip-path">
      <rect id="Rectangle_862" data-name="Rectangle 862" width="21.902" height="21.906" fill="#898989"/>
    </clipPath>
  </defs>
  <g id="Group_256" data-name="Group 256" clip-path="url(#clip-path)">
    <path id="Path_1557" data-name="Path 1557" d="M21.9,98.076v3.08c-.146.317-.294.634-.436.954a.2.2,0,0,0,0,.146c.142.32.29.636.436.954v3.08c-.015.054-.032.108-.046.162a1.913,1.913,0,0,1-1.236,1.392c-.125.047-.257.076-.386.114H1.67a.464.464,0,0,0-.078-.033A1.917,1.917,0,0,1,0,105.942c0-.805,0-1.611,0-2.416a1.9,1.9,0,0,1,.4-1.213.17.17,0,0,0,0-.254,1.907,1.907,0,0,1-.4-1.233q.007-1.208,0-2.416a1.909,1.909,0,0,1,.4-1.233.17.17,0,0,0,0-.254A1.915,1.915,0,0,1,0,95.687c.005-.77,0-1.54,0-2.309a1.742,1.742,0,0,1,.041-.53c.152-.458.343-.9.5-1.358a.285.285,0,0,1,.321-.222c1.767.008,3.535,0,5.3,0q7.429,0,14.859,0c.161,0,.257.028.317.2.174.5.368.984.555,1.475v3.08c-.146.317-.294.634-.436.954a.2.2,0,0,0,0,.146c.142.32.29.636.436.954m-9.042-2.952h4.061c.584,0,1.168,0,1.753,0a.6.6,0,0,0,.62-.425.631.631,0,0,0-.63-.856q-5.781,0-11.563,0a.929.929,0,0,0-.128,0,.584.584,0,0,0-.513.422.634.634,0,0,0,.651.856q2.875,0,5.749,0m.015,3.851q-2.885,0-5.771,0a.637.637,0,0,0-.637.883.626.626,0,0,0,.683.4H18.606a1.316,1.316,0,0,0,.171,0,.583.583,0,0,0,.515-.418.634.634,0,0,0-.647-.86q-2.885,0-5.771,0m0,6.418h3.762c.677,0,1.354,0,2.03,0a.6.6,0,0,0,.621-.423.634.634,0,0,0-.649-.858q-5.771,0-11.542,0a.957.957,0,0,0-.128,0,.584.584,0,0,0-.514.42.634.634,0,0,0,.649.858q2.885,0,5.771,0M3.85,94.473a.641.641,0,1,0-.626.651.648.648,0,0,0,.626-.651m-.633,4.5a.641.641,0,1,0,.633.644.647.647,0,0,0-.633-.644m.633,5.767a.641.641,0,1,0-.627.65.648.648,0,0,0,.627-.65" transform="translate(0 -86.053)" fill="#898989"/>
    <path id="Path_1558" data-name="Path 1558" d="M40.4,3.84H20.882c.027-.074.045-.134.069-.191.334-.8.665-1.6,1-2.4A1.885,1.885,0,0,1,23.819,0Q30.64,0,37.461,0a1.911,1.911,0,0,1,1.866,1.243q.5,1.2,1,2.4c.024.057.043.117.071.192" transform="translate(-19.689 0)" fill="#898989"/>
  </g>
</svg>
