<svg id="Group_26" data-name="Group 26" xmlns="http://www.w3.org/2000/svg" xmlns:xlink="http://www.w3.org/1999/xlink" width="22.253" height="25.335" viewBox="0 0 22.253 25.335">
  <defs>
    <clipPath id="clip-path">
      <rect id="Rectangle_69" data-name="Rectangle 69" width="22.253" height="25.335" fill="#73a9f3"/>
    </clipPath>
  </defs>
  <g id="Group_25" data-name="Group 25" clip-path="url(#clip-path)">
    <path id="Path_890" data-name="Path 890" d="M7.7,25.335c-.562-.083-1.132-.128-1.684-.254A7.821,7.821,0,0,1,6.632,9.74a7.279,7.279,0,0,1,2.473-.006V13.9c-.219-.041-.426-.087-.634-.118a3.738,3.738,0,1,0-1.012,7.406,3.776,3.776,0,0,0,4.232-3.835c-.023-3.005,0-6.011,0-9.016q0-4,0-8V0h4.1c.06.426.1.852.183,1.269A6.369,6.369,0,0,0,21.941,6.31c.251.008.315.075.312.323-.014,1.172-.006,2.345-.006,3.517v.283a10.159,10.159,0,0,1-3.383-.548A10.772,10.772,0,0,1,15.83,8.268c0,.137,0,.224,0,.311q.013,4.384.026,8.769a7.59,7.59,0,0,1-1.286,4.4,7.808,7.808,0,0,1-6.109,3.548c-.089.007-.177.028-.266.042Z" transform="translate(-0.001)" fill="#73a9f3"/>
  </g>
</svg>
