<svg id="Group_95" data-name="Group 95" xmlns="http://www.w3.org/2000/svg" xmlns:xlink="http://www.w3.org/1999/xlink" width="175.552" height="175.581" viewBox="0 0 175.552 175.581">
  <defs>
    <clipPath id="clip-path">
      <rect id="Rectangle_220" data-name="Rectangle 220" width="175.552" height="175.581" fill="#73a9f3"/>
    </clipPath>
  </defs>
  <g id="Group_94" data-name="Group 94" clip-path="url(#clip-path)">
    <path id="Path_944" data-name="Path 944" d="M14.618,135.228c5.859-3.926,11.468-7.682,17.073-11.444q8.023-5.383,16.04-10.774c9.913-6.632,21.789-5.913,30.676,2.081,3.771,3.392,7.875,4.958,12.779,3.43a13.6,13.6,0,0,0,4.575-2.639c10.8-9.165,21.524-18.419,32.282-27.633,10.151-8.695,22.876-8.72,33.066-.088.583.494,1.176.977,2.081,1.728.045-.9.1-1.538.1-2.177.008-5.232-.04-10.465.02-15.7.052-4.483,3.71-7.426,7.747-6.338a6.1,6.1,0,0,1,4.454,5.39c.026.318.035.638.035.956-.033,15.5.035,31.006-.145,46.508a79.957,79.957,0,0,1-3.516,22.607c-5.033,16.4-15.952,26.737-32.408,31.34a77.569,77.569,0,0,1-20.38,3.033c-20.867.14-41.737.216-62.6-.021a71.991,71.991,0,0,1-27.586-5.541c-13.228-5.63-21.361-15.683-25.427-29.274A78.67,78.67,0,0,1,.11,118.624Q-.1,87.9.117,57.181a77.383,77.383,0,0,1,4.02-24.049C9.249,17.861,19.689,8.207,35.015,3.642A82.092,82.092,0,0,1,57.454.251C70.215.083,82.98.134,95.743.136A6.106,6.106,0,0,1,101.9,4.878a5.977,5.977,0,0,1-3.567,6.88,9.854,9.854,0,0,1-3.539.589c-11.36.051-22.719.023-34.078.058a80.992,80.992,0,0,0-21.757,2.747c-13.042,3.658-21,12.2-24.322,25.23a79.068,79.068,0,0,0-2.366,19.509q-.031,29.191.073,58.382a67.909,67.909,0,0,0,2.279,16.955m4.854,11.619a29.657,29.657,0,0,0,11.735,10.721c8.2,4.212,17.085,5.6,26.123,5.711q27.666.335,55.337.076a121.555,121.555,0,0,0,19.214-1.65c15.543-2.663,25.555-11.568,29.235-27.2,2.127-9.035,2.265-18.2,2.132-27.394a3.006,3.006,0,0,0-1.1-1.828c-3.105-2.749-6.266-5.437-9.417-8.133a11.953,11.953,0,0,0-16.2-.012q-16.411,14.094-32.852,28.154a27.223,27.223,0,0,1-5.21,3.523,24.7,24.7,0,0,1-28.018-4.378c-4.874-4.6-10.514-4.823-16.052-1.091q-6.824,4.6-13.652,9.189L19.473,146.846" transform="translate(0 -0.062)" fill="#73a9f3"/>
    <path id="Path_945" data-name="Path 945" d="M102.269,108.952A22.445,22.445,0,1,1,124.82,86.488a22.49,22.49,0,0,1-22.552,22.464m.088-12.262A10.186,10.186,0,1,0,92.1,86.548,10.193,10.193,0,0,0,102.356,96.69" transform="translate(-39.084 -31.361)" fill="#73a9f3"/>
    <path id="Path_946" data-name="Path 946" d="M252.56,20.833V23.47q0,15.687-.009,31.374a6.2,6.2,0,0,1-4.461,6.192,5.877,5.877,0,0,1-6.769-2.662,8.782,8.782,0,0,1-.974-3.99c-.078-10.266-.042-20.533-.043-30.8V20.962c-2.035,2.03-3.668,3.85-5.511,5.422a9.107,9.107,0,0,1-3.752,2.05,5.746,5.746,0,0,1-6.378-3.138,6.141,6.141,0,0,1,1.087-7.084c1.98-2.076,4.048-4.069,6.069-6.106q4.985-5.024,9.96-10.06a6.291,6.291,0,0,1,9.214-.077q7.922,7.906,15.783,15.871c2.709,2.748,2.776,6.583.243,9.035-2.465,2.385-6.223,2.244-8.9-.386-1.751-1.718-3.441-3.5-5.558-5.656" transform="translate(-109.654 0)" fill="#73a9f3"/>
  </g>
</svg>
