<svg xmlns="http://www.w3.org/2000/svg" xmlns:xlink="http://www.w3.org/1999/xlink" width="50.955" height="54.638" viewBox="0 0 50.955 54.638">
  <defs>
    <clipPath id="clip-path">
      <rect id="Rectangle_166" data-name="Rectangle 166" width="50.955" height="54.638" fill="none"/>
    </clipPath>
  </defs>
  <g id="Group_90" data-name="Group 90" transform="translate(0)">
    <g id="Group_89" data-name="Group 89" transform="translate(0)" clip-path="url(#clip-path)">
      <path id="Path_915" data-name="Path 915" d="M24.485,0H53.941c.026.023.05.063.079.067a6.3,6.3,0,0,1,5.161,6.569c-.06,8.563-.018,17.126-.017,25.689l-.106.039a9.894,9.894,0,0,0-6.169,1.693c-.005-.231-.014-.461-.014-.692q0-12.387,0-24.773V7.909h-3.72c-.007-.284-.014-.568-.02-.852a3.2,3.2,0,0,0-3.22-3.221q-7.816-.02-15.632,0a3.152,3.152,0,0,0-3.153,3.108c-.012.319-.02.639-.031.958H23.437v38.83H24.1q5.653,0,11.306,0,7.306,0,14.612-.01a10.826,10.826,0,0,0,2.4,2.762A9.634,9.634,0,0,0,58.323,51.6a12.445,12.445,0,0,1-1.846,1.936,13.643,13.643,0,0,1-2.536,1.1H24.485a1.574,1.574,0,0,0-.286-.1,5.85,5.85,0,0,1-3.312-1.781,6.548,6.548,0,0,1-1.736-4.766q0-19.547,0-39.094,0-1.674.1-3.347a5.851,5.851,0,0,1,2.468-4.386A7.747,7.747,0,0,1,24.485,0" transform="translate(-17.107)" fill="#f3d453"/>
      <path id="Path_916" data-name="Path 916" d="M5.137,54.638a14.91,14.91,0,0,1-1.481-.532A5.947,5.947,0,0,1,.02,48.389Q0,34.579.014,20.768c0-4.8.04-9.6-.014-14.4A6.157,6.157,0,0,1,5.217.08C5.264.074,5.306.027,5.35,0H7.378A7.747,7.747,0,0,0,4.62,1.159,5.851,5.851,0,0,0,2.152,5.545q-.1,1.671-.1,3.347-.01,19.547,0,39.094A6.548,6.548,0,0,0,3.78,52.752a5.85,5.85,0,0,0,3.312,1.781,1.577,1.577,0,0,1,.286.1Z" transform="translate(0)" fill="#f1a755"/>
      <path id="Path_917" data-name="Path 917" d="M85.9,112.873q-7.306.005-14.612.01-5.653,0-11.306,0h-.665V74.053h3.662c.009.514.012,1.029.028,1.543a3.182,3.182,0,0,0,3.213,3.156c.959.013,1.919.025,2.877-.007a.628.628,0,0,1,.739.521,4.382,4.382,0,0,0,7.978.826,10.807,10.807,0,0,0,.575-1.338c1.138,0,2.291.013,3.444,0a3.112,3.112,0,0,0,3.088-2.571,16.56,16.56,0,0,0,.115-2.12h3.72v.684q0,12.387,0,24.773c0,.231.009.461.014.692-.121.1-.241.206-.364.306a9.532,9.532,0,0,0-3.716,7.616,10.188,10.188,0,0,0,1.213,4.742M74.024,85.67h-10.3a3.158,3.158,0,0,0-.532.014.771.771,0,0,0-.7.751.755.755,0,0,0,.575.848,2.248,2.248,0,0,0,.632.063q10.3,0,20.593,0a2.229,2.229,0,0,0,.632-.062.767.767,0,0,0,.581-.85.78.78,0,0,0-.708-.751,3.5,3.5,0,0,0-.533-.013H74.024m0,5.016q-5.255,0-10.51,0c-.66,0-1.018.292-1.023.818s.357.836,1,.86c.089,0,.178,0,.267,0q10.243,0,20.487,0a2.443,2.443,0,0,0,.685-.065.766.766,0,0,0,.579-.851.78.78,0,0,0-.71-.749,3.159,3.159,0,0,0-.479-.011h-10.3m-.059,6.665H84.254a4.359,4.359,0,0,0,.532-.015.783.783,0,0,0,.725-.789.812.812,0,0,0-.735-.836A3.9,3.9,0,0,0,84.3,95.7H63.715a2.836,2.836,0,0,0-.532.017.768.768,0,0,0-.688.815.754.754,0,0,0,.7.8,3.4,3.4,0,0,0,.532.018H73.963M69.7,100.715c-2.1,0-4.2,0-6.295,0a.815.815,0,0,0-.914.82c0,.49.339.8.908.827.16.007.32,0,.48,0H75.614c.142,0,.285.005.427,0,.576-.029.894-.337.882-.847a.8.8,0,0,0-.876-.8c-2.116-.008-4.232,0-6.348,0" transform="translate(-52.983 -66.15)" fill="#e4e4e4"/>
      <path id="Path_918" data-name="Path 918" d="M326.973,302.915a9.71,9.71,0,0,1,6.123,2.868,9.479,9.479,0,0,1,2.775,6.906,9.658,9.658,0,0,1-8.211,9.422,3.047,3.047,0,0,1-.477,0c-.186-.039-.373-.075-.559-.117a9.643,9.643,0,0,1-.085-18.86,1.275,1.275,0,0,0,.327-.184l.106-.039m-.913,12.846c-.247-.282-.411-.464-.568-.652-.685-.816-1.36-1.641-2.054-2.45-.436-.509-.891-.583-1.29-.246a.872.872,0,0,0,.013,1.317q1.7,2.048,3.412,4.092a.85.85,0,0,0,1.574-.234q1.749-4.4,3.471-8.814c.256-.653.1-1.092-.409-1.3-.473-.189-.881.035-1.134.659-.46,1.134-.9,2.276-1.353,3.414l-1.664,4.21" transform="translate(-284.916 -270.589)" fill="#f6526e"/>
      <path id="Path_919" data-name="Path 919" d="M115.68,39.93a16.556,16.556,0,0,1-.115,2.12,3.112,3.112,0,0,1-3.088,2.571c-1.153.017-2.306,0-3.444,0a10.806,10.806,0,0,1-.575,1.338,4.382,4.382,0,0,1-7.978-.826.628.628,0,0,0-.738-.521c-.958.032-1.918.02-2.877.007a3.181,3.181,0,0,1-3.213-3.156c-.016-.514-.019-1.029-.028-1.543.01-.319.019-.639.031-.958a3.152,3.152,0,0,1,3.153-3.108q7.816-.023,15.632,0a3.2,3.2,0,0,1,3.22,3.221c.005.284.013.568.02.852m-20.354,0c-.009.39-.025.78-.025,1.17a1.643,1.643,0,0,0,1.858,1.871c1.172.007,2.344,0,3.515,0,1,0,1.12.109,1.254,1.085a2.728,2.728,0,0,0,5.4.208c.2-1.286.21-1.293,1.5-1.293h.692c.923,0,1.847.016,2.77,0a1.561,1.561,0,0,0,1.679-1.709c0-.443-.013-.887-.02-1.33.007-.177.02-.354.021-.531,0-1.311-.566-1.9-1.868-1.9q-7.459-.006-14.918,0a3.239,3.239,0,0,0-.477.032,1.552,1.552,0,0,0-1.4,1.5c-.021.3.01.6.018.9" transform="translate(-83.634 -32.021)" fill="#305a68"/>
      <path id="Path_920" data-name="Path 920" d="M307.308,303.071a1.27,1.27,0,0,1-.327.184,9.643,9.643,0,0,0,.085,18.86c.186.042.372.078.559.117l-1.052.073a9.634,9.634,0,0,1-5.907-2.114,10.826,10.826,0,0,1-2.4-2.762,10.188,10.188,0,0,1-1.212-4.742,9.531,9.531,0,0,1,3.716-7.616c.123-.1.243-.2.364-.306a9.894,9.894,0,0,1,6.169-1.693" transform="translate(-265.357 -270.706)" fill="#d1264b"/>
      <path id="Path_921" data-name="Path 921" d="M100.628,182.88h10.243a3.5,3.5,0,0,1,.533.013.78.78,0,0,1,.708.751.768.768,0,0,1-.581.85,2.228,2.228,0,0,1-.632.062q-10.3,0-20.593,0a2.244,2.244,0,0,1-.632-.063.755.755,0,0,1-.575-.848.771.771,0,0,1,.7-.751,3.145,3.145,0,0,1,.532-.014h10.3" transform="translate(-79.588 -163.361)" fill="#335d6b"/>
      <path id="Path_922" data-name="Path 922" d="M100.605,229.887h10.3a3.158,3.158,0,0,1,.479.011.78.78,0,0,1,.71.749.766.766,0,0,1-.579.852,2.439,2.439,0,0,1-.685.065q-10.243,0-20.487,0c-.089,0-.178,0-.267,0-.645-.024-1.007-.336-1-.86s.363-.817,1.023-.818q5.255,0,10.51,0" transform="translate(-79.566 -205.352)" fill="#335d6b"/>
      <path id="Path_923" data-name="Path 923" d="M100.6,278.509H90.365a3.366,3.366,0,0,1-.532-.018.753.753,0,0,1-.7-.8.767.767,0,0,1,.688-.815,2.813,2.813,0,0,1,.532-.017h20.581a3.875,3.875,0,0,1,.479.012.812.812,0,0,1,.735.836.783.783,0,0,1-.725.789,4.337,4.337,0,0,1-.532.015H100.6" transform="translate(-79.623 -247.309)" fill="#2e5968"/>
      <path id="Path_924" data-name="Path 924" d="M96.3,323.88c2.116,0,4.232,0,6.348,0a.794.794,0,0,1,.876.8c.011.511-.307.818-.882.847-.142.007-.284,0-.427,0H90.476c-.16,0-.32,0-.48,0-.569-.024-.911-.338-.908-.827a.815.815,0,0,1,.914-.82c2.1-.007,4.2,0,6.295,0" transform="translate(-79.581 -289.316)" fill="#2e5968"/>
      <path id="Path_925" data-name="Path 925" d="M350.35,353.417l1.664-4.21c.45-1.138.893-2.28,1.353-3.414.253-.625.661-.848,1.134-.659.511.2.664.643.409,1.3q-1.726,4.411-3.471,8.814a.85.85,0,0,1-1.574.234q-1.711-2.042-3.412-4.092a.872.872,0,0,1-.013-1.317c.4-.337.854-.264,1.29.246.693.809,1.369,1.633,2.054,2.45.158.188.322.37.568.652" transform="translate(-309.206 -308.245)" fill="#e5e3e3"/>
      <path id="Path_926" data-name="Path 926" d="M127.991,74.108c.007.443.023.887.02,1.33a1.561,1.561,0,0,1-1.679,1.709c-.923.02-1.846,0-2.77,0h-.692c-1.29,0-1.3.007-1.5,1.293a2.728,2.728,0,0,1-5.4-.208c-.135-.976-.259-1.084-1.254-1.085-1.172,0-2.344.005-3.515,0a1.643,1.643,0,0,1-1.858-1.871c0-.39.016-.78.025-1.17l18.626,0" transform="translate(-97.672 -66.2)" fill="#e3e4e3"/>
      <path id="Path_927" data-name="Path 927" d="M127.985,53.757l-18.626,0c-.008-.3-.039-.6-.018-.9a1.553,1.553,0,0,1,1.4-1.5,3.237,3.237,0,0,1,.477-.032q7.459,0,14.918,0c1.3,0,1.87.586,1.868,1.9,0,.177-.013.354-.021.531" transform="translate(-97.667 -45.849)" fill="#efd253"/>
    </g>
  </g>
</svg>
