<svg xmlns="http://www.w3.org/2000/svg" xmlns:xlink="http://www.w3.org/1999/xlink" width="24.849" height="17.388" viewBox="0 0 24.849 17.388">
  <defs>
    <clipPath id="clip-path">
      <rect id="Rectangle_66" data-name="Rectangle 66" width="24.849" height="17.388" fill="#73a9f3"/>
    </clipPath>
  </defs>
  <g id="Group_106" data-name="Group 106" transform="translate(3078.424 -1716.306)">
    <g id="Group_20" data-name="Group 20" transform="translate(-3078.424 1716.306)">
      <g id="Group_19" data-name="Group 19" clip-path="url(#clip-path)">
        <path id="Path_886" data-name="Path 886" d="M20.034.231a13.005,13.005,0,0,1,1.8.217,3.133,3.133,0,0,1,2.617,2.743,29.932,29.932,0,0,1,.38,6.3c-.049,1.474-.191,2.945-.333,4.414a3.3,3.3,0,0,1-1.5,2.621,4.216,4.216,0,0,1-1.894.544,70.238,70.238,0,0,1-7.725.318c-2.586-.013-5.172-.091-7.758-.175a22.745,22.745,0,0,1-2.493-.254A3.055,3.055,0,0,1,.447,14.315C.262,13.211.158,12.09.08,10.973A36.176,36.176,0,0,1,.135,5.483,20.436,20.436,0,0,1,.476,2.946,3.128,3.128,0,0,1,3.342.375,67.785,67.785,0,0,1,10.623,0C11.2,0,11.778,0,12.356,0M9.968,4.973v7.443l6.45-3.721L9.968,4.973" transform="translate(0 0)" fill="#73a9f3"/>
      </g>
    </g>
  </g>
</svg>
